<?xml version="1.0" encoding="utf-8"?>
<!-- Generator: Adobe Illustrator 18.1.1, SVG Export Plug-In . SVG Version: 6.00 Build 0)  -->
<svg version="1.1" baseProfile="tiny" id="Layer_1" xmlns="http://www.w3.org/2000/svg" xmlns:xlink="http://www.w3.org/1999/xlink"
	 x="0px" y="0px" viewBox="0 0 400 423" xml:space="preserve">
<g>
	<path fill="#FFFFFF" d="M34.2,400H17.4l-2.4,23H0l12.4-117.4h26.8L51.3,423H36.6L34.2,400z M19.1,384.9h13.4l-6.7-64.2L19.1,384.9z
		"/>
	<path fill="#FFFFFF" d="M60.7,305.6h15.1v102.3h17.8V423H60.7V305.6z"/>
	<path fill="#FFFFFF" d="M133.7,400h-16.8l-2.4,23H99.5l12.4-117.4h26.8L150.8,423H136L133.7,400z M118.6,384.9H132l-6.7-64.2
		L118.6,384.9z"/>
	<path fill="#FFFFFF" d="M160.2,305.6h31c5.7,0,10.1,4.7,10.1,10.1v37.7c0,4.2-2.2,7.4-5.2,8.2c4.5,1,7,5.7,7,9.9
		c0,4.2,0,38.1,0,41.6c0,5.4-4.5,9.9-10.1,9.9h-32.9V305.6z M175.3,354.9h10.9v-34.2h-10.9V354.9z M188,407.9V370h-12.7v37.9H188z"
		/>
	<path fill="#FFFFFF" d="M246,400h-16.8l-2.3,23h-15.1l12.4-117.4h26.8L263.1,423h-14.8L246,400z M230.9,384.9h13.4l-6.7-64.2
		L230.9,384.9z"/>
	<path fill="#FFFFFF" d="M324.2,423v-63.4l-12.4,38.2h-12.2l-11.4-38.2V423h-15.6V305.6h15.1l17.9,58.7l18.6-58.7h15.1V423H324.2z"
		/>
	<path fill="#FFFFFF" d="M382.9,400h-16.8l-2.3,23h-15.1l12.4-117.4h26.8L400,423h-14.8L382.9,400z M367.8,384.9h13.4l-6.7-64.2
		L367.8,384.9z"/>
</g>
<path id="globe_1_" fill="#FFFFFF" d="M207.5,15.2c-6.4-7.8-14.6-14.6-14-14.7c18.3-0.9,56.3,8.3,64.1,18c0,0-23.2-3.9-48.3-2.4
	l-1.1,0.1L207.5,15.2z M208.2,16.1l0,0.4l1.1-0.1h0h0c4.1-0.3,8.2-0.4,12.1-0.4c10,0,19,0.7,25.5,1.4c3.3,0.3,5.9,0.7,7.7,0.9
	c1.8,0.3,2.8,0.4,2.8,0.4l1.1,0.2l-0.7-0.9c-1.9-2.4-5.6-4.7-10.2-6.8C233.8,5,210.6,0,196.2,0c-0.9,0-1.8,0-2.7,0.1l-0.3,0.1
	L193,0.5c0,0.2,0,0.2,0.1,0.3c0.1,0.2,0.3,0.4,0.6,0.6c1.9,1.9,8.3,7.6,13.5,14l0.3-0.3l-0.3,0.2l0.7,1l0.1,0.2l0.2,0L208.2,16.1
	l0.3-0.2l-0.7-1l0,0l0,0c-3.1-3.8-6.6-7.3-9.4-10c-1.4-1.3-2.5-2.4-3.4-3.2c-0.4-0.4-0.7-0.7-1-1l-0.2-0.3l0,0l-0.3,0.1h0.3l0-0.1
	l-0.3,0.1h0.3h-0.4l0.3,0.3l0.1-0.3h-0.4l0.3,0.3l-0.3-0.3l0,0.4l0.2-0.1l-0.3-0.3l0,0.4c0.8,0,1.7-0.1,2.7-0.1
	c9.5,0,23,2.2,34.9,5.6c6,1.7,11.6,3.6,16.2,5.8c4.6,2.1,8.1,4.4,9.9,6.6l0.3-0.3l0.1-0.4c0,0-16.2-2.8-36.2-2.8
	c-3.9,0-8,0.1-12.1,0.4l0,0.4l0-0.4l-1.1,0.1L208.2,16.1l0.3-0.2L208.2,16.1z M181.3,1.9c-0.5-0.3,0,0-0.5-0.3
	c-0.2-0.1-0.6-0.3-1-0.2c-24.5,2.1-40.9,10.1-41.7,10.5c-0.6,0.3-0.8,0.4-1,0.6c-0.1,0.2-0.1,0.1,0,0.5c0.5,1.9,5.5,17.7,5.7,18.1
	c0.2,0.4,0.2,0.4,0.3,0.5c0.3,0.2,0.6,0,1-0.2c0.7-0.3,22.2-11,52.4-14c0.9-0.1,0.7,0,0.9-0.2c0.1-0.1-0.2-0.5-0.5-0.7
	C194.6,14,183.7,3.5,181.3,1.9z M181.3,1.9l0.2-0.3l-0.2-0.1l-0.1,0c0,0,0,0-0.2,0l-0.3,0.1l-0.1,0.1l0.2,0.1l-0.2-0.1v0l0.2,0.1
	l-0.2-0.1l0.4,0.2l-0.2-0.3l-0.1,0.1l0.4,0.2l-0.2-0.3l0.2,0.3V1.4l-0.2,0.1l0.2,0.3V1.4v0.4l0.2-0.3l-0.2,0v0.4l0.2-0.3l0,0.1
	l0-0.1l0,0l0,0.1l0-0.1c0,0-0.1,0-0.2-0.1C180.8,1.1,180.4,1,180,1l-0.2,0c-24.6,2.1-41,10.2-41.8,10.5c-0.6,0.3-0.9,0.4-1.1,0.7
	l-0.1,0.1l-0.1,0.3c0,0.2,0.1,0.3,0.1,0.5c0.3,0.9,1.7,5.4,3,9.6c0.7,2.1,1.3,4.2,1.8,5.8c0.3,0.8,0.5,1.5,0.6,1.9
	c0.1,0.2,0.1,0.4,0.2,0.6c0.1,0.1,0.1,0.2,0.1,0.3c0.1,0.2,0.1,0.3,0.2,0.4L143,32c0.1,0.1,0.3,0.1,0.5,0.1c0.4,0,0.6-0.2,0.9-0.3
	c0.1,0,0.5-0.2,1.2-0.6c5-2.3,24.7-10.8,51-13.4c0.5,0,0.6-0.1,0.7-0.1l0.2-0.1l0.1-0.1c0.2-0.1,0.2-0.3,0.2-0.4
	c0-0.2-0.1-0.3-0.1-0.3c-0.1-0.2-0.4-0.4-0.5-0.6c-1.2-1.3-4.5-4.6-7.8-7.7c-1.7-1.6-3.3-3.1-4.7-4.4c-1.4-1.3-2.5-2.2-3.2-2.6
	L181.3,1.9l-0.2,0.3c0.6,0.4,1.7,1.3,3.1,2.5c4.2,3.7,10.7,10.1,12.5,12.1l0.3,0.4l0.1,0.1l0,0l0.2-0.1h-0.2l0,0.1l0.2-0.1h-0.2h0.4
	l-0.2-0.3l-0.2,0.3h0.4l-0.2-0.3l-0.1,0.1l0,0l0.2,0.2l-0.1-0.3l-0.1,0l0.2,0.2l-0.1-0.3l0,0.1l0-0.1l0,0l0,0.1l0-0.1
	c0,0-0.2,0-0.7,0.1c-15.1,1.5-28.1,4.9-37.4,8.1c-4.6,1.6-8.3,3-10.9,4.1c-1.3,0.5-2.3,1-3,1.3c-0.7,0.3-1.1,0.5-1.2,0.6
	c-0.3,0.1-0.5,0.2-0.5,0.2l0,0l0,0l-0.1,0.1l0.1-0.1l0,0l-0.1,0.1l0.1-0.1l-0.1,0.1l0.1-0.1l0,0l-0.1,0.1l0.1-0.1
	c0,0-0.1-0.1-0.2-0.4l0,0c-0.2-0.4-1.5-4.5-2.8-8.7c-1.3-4.2-2.7-8.5-2.9-9.4l-0.1-0.3l0,0l-0.1,0h0.1l0,0l-0.1,0h0.1h-0.3l0.2,0.1
	l0-0.1h-0.3l0.2,0.1l-0.1,0l0.1,0l0,0l-0.1,0l0.1,0l0-0.1l0.2-0.1c0.1-0.1,0.3-0.2,0.6-0.3c0.8-0.4,17.1-8.4,41.6-10.5l0.1,0
	c0.3,0,0.6,0.1,0.6,0.2l0.3,0.1l0.1,0l0.2,0l0.2-0.1l0.1-0.1l0,0l-0.4-0.2l0.3,0.2l0,0l-0.4-0.2l0.3,0.2l-0.3-0.2l0.2,0.4l0.1-0.1
	l-0.3-0.2l0.2,0.4l-0.2-0.3v0.4l0.2-0.1l-0.2-0.3v0.4V1.8l-0.2,0.3c0,0,0,0,0.2,0V1.8l-0.2,0.3l0,0l0.2,0.1L181.3,1.9z M128.5,16
	c-0.5,0.3-25.4,13.1-40.6,31.1c-0.2,0.2-0.2,0.2-0.3,0.5c0,0.1,0-0.2,0,0.5c0.1,0.6,3.7,17.3,3.8,18c0.2,0.7,0.3,1,0.4,1.3
	c0.1,0.2,0.3-0.1,0.6-0.4c19.7-19.8,41.5-30.8,42.3-31.3c0.4-0.3,0.6-0.3,0.6-0.5c0-0.2-0.1-0.2-0.1-0.4c-0.4-1.2-5.4-17-6-18.4
	c-0.2-0.6-0.1-0.3-0.2-0.4C128.9,15.8,128.9,15.9,128.5,16z M129.1,15.9l-0.2,0.3c0,0,0.1,0.1,0.3,0.1c0.2,0,0.4-0.2,0.4-0.2l0,0
	L129.1,15.9l0.4,0.2l0,0L129.1,15.9l0.4,0.2L129.1,15.9l0.3,0.3l0.1-0.1L129.1,15.9l0.3,0.3L129.1,15.9l0.1,0.4l0.3-0.1L129.1,15.9
	l0.1,0.4L129.1,15.9l-0.2,0.3l0.3,0.1L129.1,15.9l-0.2,0.3L129.1,15.9l-0.3,0.2l0.1,0.1L129.1,15.9l-0.3,0.2L129.1,15.9l-0.3,0.2
	l0,0L129.1,15.9l-0.3,0.2c0,0,0,0.1,0.1,0.3c0.1,0.3,0.6,1.6,1.1,3.3c1.7,5.1,4.6,14.2,4.8,15.1l0.1,0.3l0,0.1h0.3l-0.2-0.2
	l-0.1,0.2h0.3l-0.2-0.2l0,0c0,0-0.2,0.1-0.4,0.3c-0.1,0-0.5,0.3-1.2,0.7c-5,2.7-23.9,13.4-41.1,30.7L92,67l-0.1,0l0.1,0.2V67l-0.1,0
	l0.1,0.2V67v0.3l0.3-0.1L92,67v0.3l0.3-0.1C92.2,67,92.1,66.7,92,66c-0.1-0.3-1-4.7-2-9c-0.5-2.2-0.9-4.3-1.3-6
	c-0.2-0.8-0.3-1.5-0.4-2c-0.1-0.5-0.2-0.8-0.2-0.9c0-0.2,0-0.3,0-0.3l0-0.1l0,0l-0.4,0h0.4l0,0l-0.4,0h0.4h-0.4l0.4,0l0,0h-0.4
	l0.4,0l-0.4,0l0.4,0.2l0-0.1l-0.4,0l0.4,0.2l-0.4-0.2l0.3,0.3l0.1-0.2l-0.4-0.2l0.3,0.3l-0.3,0.1v-0.4L87.4,48c0,0,0,0.1,0.3,0.1
	v-0.4L87.4,48l0.3-0.3l-0.3,0.2l0,0.1l0.3-0.3l-0.3,0.2l0,0.1c0,0,0.1,0.1,0.3,0.1c0.2,0,0.3-0.1,0.3-0.2l0.1-0.2l0-0.1l0-0.1l0,0
	l0,0l0.1-0.1c7.5-9,17.5-16.7,25.7-22.1c4.1-2.7,7.7-4.9,10.3-6.4c1.3-0.8,2.4-1.4,3.1-1.8c0.8-0.4,1.2-0.6,1.3-0.7l0.2-0.1l0,0
	l0-0.2v0.2l0,0l0-0.2v0.2v-0.2l-0.1,0.2l0.1,0v-0.2l-0.1,0.2l0-0.1l0,0l0,0l0-0.1l0,0l0,0L129.1,15.9l0.2-0.3
	c-0.1-0.1-0.2-0.2-0.4-0.2c-0.3,0-0.4,0.1-0.6,0.2c0,0-0.5,0.3-1.3,0.7C121.8,19.3,101,31,87.7,46.9l-0.2,0.2
	c-0.1,0.1-0.1,0.3-0.2,0.5l0.3,0l-0.3-0.1l0,0.1l0.3,0l-0.3-0.1l0.4,0.1l-0.3-0.2l-0.1,0.1l0.4,0.1l-0.3-0.2l0.3,0.3v-0.4
	c-0.2,0-0.3,0.1-0.3,0.2l0.3,0.3v-0.4v0.4l0.3-0.3c0,0-0.1-0.1-0.3-0.1v0.4l0.3-0.3l-0.3,0.3l0.3-0.2L88,47.4l-0.3,0.3l0.3-0.2l0,0
	L88,47.4c0,0-0.1-0.1-0.3-0.1l-0.3,0.1l-0.1,0.2l0,0.1l0,0.1c0,0,0,0.1,0.1,0.4c0,0.1,0.1,0.4,0.2,0.9c0.7,3.6,3.5,16.5,3.7,17.1
	c0.2,0.7,0.3,1.1,0.4,1.3c0,0.1,0.3,0.3,0.4,0.3c0.3,0,0.4-0.1,0.5-0.2l0.3-0.3c9.8-9.9,20.2-17.6,28.1-22.8c4-2.6,7.4-4.7,9.9-6.1
	c1.2-0.7,2.2-1.3,2.9-1.6c0.7-0.4,1.1-0.6,1.3-0.7c0.2-0.1,0.3-0.2,0.4-0.3l0.2-0.2l0.1-0.3l-0.1-0.4l-0.1-0.2
	c-0.2-0.6-1.5-4.8-2.9-9.1c-0.7-2.1-1.4-4.3-1.9-6c-0.6-1.7-1-3-1.1-3.3c-0.1-0.2-0.1-0.2-0.1-0.3l0-0.1l0-0.1l-0.1-0.1l-0.3-0.1
	l-0.3,0.1l-0.1,0.1L129.1,15.9l-0.3-0.3l-0.1,0.1L129.1,15.9l-0.3-0.3L129.1,15.9l0-0.4l-0.3,0.1L129.1,15.9l0-0.4L129.1,15.9
	l0.2-0.3l-0.2-0.1L129.1,15.9l0.2-0.3L129.1,15.9z M80.2,57.1c-19.8,27.3-22.5,51.7-22.6,52.4c-0.1,0.9-0.1,1.6,0.1,1.7
	c0.2,0,0.7,0.1,0.9-0.4c8.6-16.3,23.3-33.6,25.7-36c0.4-0.4-0.2,0.2,0.3-0.5c0.1-0.2,0.1-0.5,0-0.8c-0.2-0.9-3.3-14.6-3.7-16.2
	c-0.1-0.3-0.1-0.6-0.3-0.6C80.6,56.8,80.4,56.9,80.2,57.1z M80.7,56.8v0.4v-0.3l-0.2,0.2l0.2,0.1v-0.3l-0.2,0.2l0.1-0.1L80.4,57l0,0
	l0.1-0.1L80.4,57l0,0l0,0l0,0l0,0l0,0c0,0,0,0.2,0.1,0.4c0.4,1.6,3.5,15.4,3.7,16.2l0,0.3l0,0.1l0,0l-0.2,0.3L84,74.5L84,74.7
	l0.1,0.3l0.3,0.1c0.2,0,0.2,0,0.2-0.1l0.1-0.1l0,0l0,0l0,0l0,0l0,0l0-0.1l0-0.2l-0.1-0.3l-0.3-0.1l-0.3,0.1L84,74.7l0.1,0.3
	l-0.1-0.1L84,74.7l0.1-0.3l0.2-0.1l0.1,0c-0.2,0-0.2,0-0.2,0l-0.1,0l-0.1,0.1L84,74.5c-1.2,1.2-5.5,6.1-10.5,12.8
	c-5.1,6.7-10.9,15.1-15.2,23.3c-0.1,0.2-0.2,0.2-0.4,0.2l-0.1,0l0,0.3L58,111l-0.2-0.1l0,0.3L58,111l-0.1,0.1L58,111l0,0l-0.1,0.1
	L58,111l0,0l0,0l0,0l0,0l0,0c0,0,0-0.2,0-0.3c0-0.3,0-0.6,0.1-1c0.1-0.7,2.8-25.1,22.5-52.2l0.2-0.2l0.1,0L80.7,57v0.2l0.1,0
	L80.7,57v0.2V56.8v-0.4l-0.3,0.1c-0.2,0.1-0.4,0.2-0.6,0.5C60,84.3,57.3,108.7,57.2,109.5c0,0.4-0.1,0.8-0.1,1.1c0,0.2,0,0.4,0,0.5
	l0.1,0.3c0.1,0.1,0.2,0.2,0.4,0.2l0.2,0c0.3,0,0.8-0.1,1.1-0.7c4.3-8.1,10.1-16.5,15.1-23.2c5-6.6,9.3-11.6,10.5-12.7l0.1-0.1l0,0
	l0,0l0,0l0,0l0,0l0,0l-0.2-0.3l0.2,0.3l0,0l-0.2-0.3l0.2,0.3l-0.3-0.3l0.2,0.3l0,0l-0.3-0.3l0.2,0.3l-0.3-0.3l0.2,0.3l0,0l-0.3-0.3
	l0.2,0.3l0,0l-0.2-0.4v0.4c0.2,0,0.2,0,0.2,0l-0.2-0.4v0.4h0l0.1,0l0.1-0.1l0.2-0.3c0-0.2-0.1-0.3-0.1-0.3l0,0l0.1,0.1l0.1,0.2
	l-0.1-0.3l-0.3-0.1l-0.3,0.1L84,74.7c0-0.2,0-0.2,0.1-0.2l0.4,0.2l-0.3-0.3l-0.1,0.1l0.4,0.2l-0.3-0.3l0.2,0.2l-0.2-0.3l0,0l0.2,0.2
	l-0.2-0.3l0.1,0.1l-0.1-0.2l0,0l0.1,0.1l-0.1-0.2l0.2,0.3l-0.1-0.3l0,0l0.2,0.3l-0.1-0.3l0.2,0.4v-0.4l-0.2,0l0.2,0.4v-0.4v0.4
	l0.3-0.3l-0.3-0.1v0.4l0.3-0.3l-0.3,0.3h0.4l-0.1-0.3l-0.3,0.3h0.4h-0.3l0.3,0.2l0-0.2h-0.3l0.3,0.2l0,0l0.2-0.3
	c0.1-0.2,0.2-0.4,0.2-0.6c0-0.2,0-0.4-0.1-0.5c-0.2-0.9-3.3-14.6-3.7-16.3c0-0.2-0.1-0.3-0.1-0.5l-0.1-0.3c-0.1-0.1-0.3-0.2-0.4-0.2
	V56.8z M215.5,24.4c-0.6,0-1.1,0.1-1.1,0.2c-0.1,0.2,0,0.3,0.5,1.1c7.7,12.8,14.8,31.3,15.2,32.1c0.2,0.4,0.2,0.3,0.4,0.5
	c0.1,0.1,0,0.1,0.9,0.1c2.1-0.1,28.6-2,54.8,6.2c1.9,0.6,2,0.9,2.3,0.6c0.2-0.2,0-1-0.4-2.1c-10.3-24.3-19.5-33-20.6-34.3
	c-0.1-0.1-0.4-0.3-0.6-0.5C263.1,26,227.4,23.5,215.5,24.4z M266.7,28.4l-0.2,0.3c0.2,0.1,0.5,0.3,0.5,0.4c0.6,0.6,3.1,3.1,6.8,8.5
	c3.7,5.4,8.6,13.6,13.7,25.7c0.3,0.7,0.5,1.3,0.5,1.6l0,0.1l0.1,0l-0.1-0.1l0,0.1l0.1,0l-0.1-0.1l0,0l0.1,0.1v-0.2l-0.1,0l0.1,0.1
	v-0.2v0l0,0h0v0l0,0c0,0-0.2-0.1-0.5-0.2c-0.3-0.1-0.8-0.3-1.4-0.5c-17.8-5.5-35.6-6.5-46-6.5c-5,0-8.3,0.2-9,0.3
	c-0.4,0-0.6,0-0.7,0h0l0,0.2l0-0.2l0,0l0,0.2l0-0.2l-0.1,0.3l0.2-0.2l-0.1-0.1l-0.1,0.3l0.2-0.2l-0.1,0.1l0.1-0.1l0,0l-0.1,0.1
	l0.1-0.1l0,0l-0.2-0.2c0,0-0.1-0.1-0.2-0.3c0-0.1-0.2-0.4-0.4-1c-1.7-4.2-8-19.8-14.7-31.1c-0.2-0.3-0.3-0.5-0.4-0.7l-0.1-0.1l0,0
	l-0.1,0h0.1v0l-0.1,0h0.1h-0.1l0.1,0v0h-0.1l0.1,0l0,0l-0.3-0.1l0.2,0.2l0.1-0.1l-0.3-0.1l0.2,0.2l-0.1-0.1l0.1,0.1l0,0l-0.1-0.1
	l0.1,0.1c0,0,0.1,0,0.3,0c0.2,0,0.4,0,0.6-0.1c1.6-0.1,3.8-0.2,6.2-0.2c7.5,0,18,0.6,27,1.4c4.5,0.4,8.6,0.9,11.8,1.4
	c1.6,0.2,2.9,0.5,4,0.8c1,0.2,1.8,0.5,2.1,0.7L266.7,28.4l0.2-0.3c-0.5-0.3-1.3-0.6-2.3-0.8c-7.5-1.8-29.8-3.5-43-3.5
	c-2.4,0-4.6,0.1-6.2,0.2c-0.3,0-0.6,0-0.8,0.1l-0.3,0.1c-0.1,0-0.3,0.1-0.3,0.3l0,0.3c0,0.2,0.1,0.4,0.2,0.5
	c0.1,0.2,0.2,0.4,0.4,0.7c3.8,6.4,7.5,14.2,10.3,20.5c1.4,3.2,2.6,5.9,3.4,8c0.4,1,0.8,1.9,1,2.5c0.2,0.6,0.4,1,0.5,1.1
	c0.1,0.2,0.2,0.3,0.2,0.4l0.2,0.2l0.2,0.2l0.3,0.1c0.2,0,0.3,0,0.7,0c0.7,0,3.9-0.3,8.9-0.3c10.3,0,28.1,0.9,45.8,6.5
	c0.7,0.2,1.1,0.4,1.5,0.5c0.3,0.1,0.5,0.2,0.7,0.2c0.2,0,0.4-0.1,0.5-0.2c0.2-0.2,0.2-0.4,0.2-0.6c0-0.5-0.2-1.1-0.5-1.9
	c-5.2-12.2-10.1-20.5-13.8-25.9c-3.7-5.4-6.3-7.9-6.9-8.5c-0.2-0.2-0.4-0.4-0.7-0.5L266.7,28.4z M297.9,66c0.7,1.9,0.7,2.1,1.1,3.1
	c0.1,0.3,0.7,0.4,2,1.2c6.1,3.6,15.7,10.1,18.8,12.6c1.6,1.3,2.5,2.1,2.5,1.7c-0.1-0.5-0.8-3.6-1.5-5c-4.7-9.1-14.5-33.7-40.9-49.4
	C274.3,26.9,286.2,35.1,297.9,66z M280,30.2l-0.2,0.4c26.2,15.6,36,40,40.7,49.2c0.7,1.3,1.4,4.5,1.5,4.9l0.2,0h-0.2v0l0.2,0h-0.2
	h0.3l-0.2-0.2l-0.1,0.2h0.3l-0.2-0.2l0.3,0.2v-0.3l-0.3,0.1l0.3,0.2v-0.3v0.2l0.1-0.2l-0.1,0v0.2l0.1-0.2l0,0
	c-0.1,0-0.4-0.2-0.8-0.5c-0.4-0.3-0.9-0.7-1.4-1.1c-3.1-2.5-12.7-9-18.9-12.6c-0.7-0.4-1.2-0.6-1.5-0.8c-0.2-0.1-0.3-0.1-0.3-0.2
	l0,0l-0.1,0.1l0.1,0l0,0l-0.1,0.1l0.1,0c-0.4-1-0.4-1.2-1.1-3.1c-4.8-12.8-9.7-21.7-13.4-27.5c-1.8-2.9-3.4-5.1-4.4-6.5
	c-0.5-0.7-1-1.3-1.2-1.7c-0.1-0.2-0.2-0.4-0.3-0.5l-0.1-0.1l0,0l-0.2,0.1h0.2l0-0.1l-0.2,0.1h0.2h-0.4l0.2,0.3l0.1-0.3h-0.4l0.2,0.3
	l-0.2-0.2l0,0.3l0.2-0.1l-0.2-0.2l0,0.3v-0.1l0,0.1l0,0v-0.1l0,0.1c0.1,0,0.5,0.2,1.2,0.6L280,30.2l0.2-0.4
	c-0.4-0.2-0.7-0.4-0.9-0.5l-0.3-0.2l-0.3-0.1l-0.3,0.1l-0.2,0.4c0,0.2,0.1,0.3,0.2,0.5c0.3,0.5,1.1,1.5,2.2,3.1
	c3.5,4.8,10.3,15.1,17.1,32.9c0.7,1.9,0.7,2.1,1.1,3.1c0.1,0.2,0.2,0.3,0.3,0.4c0.4,0.3,0.9,0.5,1.9,1c6.1,3.6,15.7,10.1,18.8,12.6
	c0.6,0.5,1.2,1,1.6,1.3c0.2,0.2,0.4,0.3,0.5,0.4c0.2,0.1,0.3,0.2,0.5,0.2l0.4-0.2l0.1-0.3l0-0.1c-0.1-0.5-0.8-3.7-1.6-5.2
	c-4.7-9.1-14.5-33.8-41-49.5L280,30.2z M202.9,25.4c-17.1,2.3-35.5,5.1-54.7,13.9c-1,0.5-1.4,0.6-1.4,0.8c-0.1,0.3,0.2,0.5,0.5,1.3
	c0.2,0.7,12.8,32.4,13.2,33.4c0.4,1,0.5,1.2,0.7,1.3c0.2,0.1,0.1,0.1,1-0.2c0.8-0.4,22.5-10.7,56.5-16c1.4-0.2,2.1-0.3,2.5-0.6
	c0.3-0.1,0.1-0.6-0.2-1.4c-7.6-20.1-15.3-30.7-16-31.6c-0.5-0.6-0.7-0.9-1-1C204,25.4,203.6,25.3,202.9,25.4z M204,25.4l-0.2,0.4
	c0.1,0,0.4,0.3,0.8,0.9c0.6,0.8,8.4,11.4,15.9,31.4c0.2,0.5,0.3,0.9,0.3,1v0l0.2,0L221,59l-0.1,0.1l0.2,0L221,59
	c-0.3,0.2-0.9,0.3-2.4,0.5c-17,2.7-31,6.6-40.8,9.9c-9.8,3.3-15.5,6-15.9,6.2c-0.3,0.1-0.4,0.2-0.5,0.2l-0.1,0l0,0l0,0.1v-0.1l0,0
	l0,0.1v-0.1v0.2l0.1-0.2l-0.1,0v0.2l0.1-0.2l-0.1,0.1l0.1-0.1l0,0l-0.1,0.1l0.1-0.1l0,0c0,0-0.1,0-0.2-0.2c-0.1-0.2-0.2-0.5-0.4-0.9
	c-0.2-0.5-3.4-8.7-6.7-16.8c-1.6-4.1-3.2-8.1-4.4-11.2c-0.6-1.5-1.1-2.8-1.5-3.8c-0.4-0.9-0.6-1.5-0.6-1.6c-0.1-0.4-0.3-0.7-0.4-0.8
	l-0.1-0.2l0,0l0,0h-0.1l0.1,0l0,0h-0.1l0.1,0l-0.1,0l0.1,0l0,0l-0.1,0l0.1,0l0,0l0,0l0,0l0,0l0,0c0,0,0.4-0.2,1.2-0.6
	c19.1-8.8,37.5-11.6,54.5-13.9c0.2,0,0.3,0,0.4,0c0.2,0,0.3,0,0.4,0l0.1,0l0,0l0,0l0,0l0,0l0,0l0,0L204,25.4l-0.2,0.4L204,25.4
	l0.1-0.4c0,0-0.3-0.1-0.7-0.1c-0.2,0-0.3,0-0.5,0c-17.1,2.3-35.6,5.1-54.8,14c-0.5,0.2-0.8,0.4-1.1,0.5l-0.3,0.2l-0.2,0.4l0,0.2
	c0,0.3,0.1,0.4,0.2,0.6c0.1,0.2,0.2,0.4,0.3,0.7c0,0.1,0.3,0.7,0.6,1.6c2.6,6.5,12.3,30.9,12.6,31.8c0.2,0.5,0.3,0.8,0.4,1
	c0.1,0.2,0.3,0.4,0.4,0.5l0.1,0.1l0.3,0.1c0.3,0,0.4-0.1,1-0.3c0.4-0.2,6-2.8,15.8-6.1c9.8-3.3,23.7-7.2,40.6-9.9
	c1.4-0.2,2.1-0.3,2.6-0.6l0.3-0.3l0.1-0.3c0-0.4-0.2-0.7-0.4-1.3c-7.6-20.2-15.3-30.8-16.1-31.7c-0.5-0.6-0.7-0.9-1.1-1.1l0,0l0,0
	L204,25.4z M138.2,44.2c-0.3-0.1-0.6,0.2-1.7,0.8c-22.9,12.6-40.1,30.8-40.8,31.4c-0.7,0.6-1,1-1,1.2c0,0.2,0.1,0.4,0.3,1
	c0.8,2.4,7,20.5,12.2,31.9c0.2,0.5,0.5,1.1,0.7,1.1c0.2,0.1,0.5-0.3,1-0.8c1.3-1.2,21.8-19.5,42.5-30c1.2-0.6,1.1-0.6,1.2-1
	c0.2-0.5,0.1-0.6-0.3-1.6c-0.5-1.1-13.3-32.4-13.5-33.1C138.4,44.3,138.2,44.2,138.2,44.2z M138.2,44.2l0.1-0.4l-0.2,0
	c-0.3,0-0.5,0.1-0.7,0.2c-0.3,0.1-0.6,0.3-1.1,0.6c-11.5,6.3-21.5,14-28.8,20.3c-3.6,3.1-6.6,5.8-8.6,7.8c-1,1-1.9,1.8-2.4,2.4
	c-0.3,0.3-0.5,0.5-0.7,0.7c-0.2,0.2-0.3,0.3-0.3,0.3c-0.4,0.3-0.6,0.5-0.8,0.8c-0.2,0.2-0.3,0.4-0.3,0.7l0,0.1v0l0,0
	c0,0.3,0.1,0.5,0.3,1.1c0.8,2.4,7,20.5,12.2,31.9c0.1,0.3,0.2,0.5,0.4,0.8l0.2,0.3c0.1,0.1,0.2,0.2,0.4,0.3l0.1,0
	c0.3,0,0.5-0.2,0.7-0.3c0.2-0.2,0.4-0.3,0.6-0.6c1.3-1.2,21.8-19.5,42.4-29.9c0.6-0.3,0.9-0.5,1.1-0.6l0.2-0.3L153,80
	c0.1-0.2,0.2-0.4,0.2-0.6c0-0.4-0.2-0.7-0.5-1.3c-0.1-0.2-1-2.4-2.3-5.5c-3.8-9.3-11-27-11.3-27.6c-0.4-0.9-0.7-1.2-0.8-1.2l-0.1,0
	l-0.1,0L138.2,44.2l-0.2,0.4l0.1-0.2l-0.2,0.2l0,0l0.1-0.2l-0.2,0.2l0,0c0,0,0.2,0.2,0.5,0.9c0.1,0.3,3.4,8.3,6.7,16.4
	c1.6,4,3.3,8.1,4.6,11.2c1.3,3.1,2.2,5.3,2.3,5.6c0.3,0.6,0.4,0.9,0.4,0.9c0,0,0,0.1-0.1,0.3l-0.1,0.2l-0.1,0.1
	c-0.1,0.1-0.4,0.2-0.8,0.5c-20.8,10.5-41.3,28.8-42.6,30c-0.3,0.2-0.5,0.4-0.6,0.6l-0.2,0.1l0,0l0.1,0.2v-0.2l-0.1,0l0.1,0.2v-0.2
	v0.2l0.1-0.2l-0.1,0v0.2l0.1-0.2l-0.1,0.2l0.1-0.2l-0.1,0l-0.1,0.2l0.1-0.2l0,0c-0.1-0.1-0.3-0.5-0.5-0.9
	c-5.1-11.4-11.4-29.5-12.2-31.9c-0.2-0.7-0.3-0.8-0.3-1l0,0l0,0l-0.2,0h0.2l0,0l-0.2,0h0.2H95l0.1,0l0,0H95l0.1,0
	c0,0,0.3-0.4,0.9-0.9c0.1-0.1,0.2-0.2,0.4-0.3c2.6-2.5,18.9-19.3,40.4-31c0.5-0.3,0.8-0.5,1.1-0.6l0.3-0.1l0.1,0v-0.1l0,0.1l0,0
	v-0.1l0,0.1L138.2,44.2l-0.2,0.4L138.2,44.2z M87.8,85.2c-0.3-0.1-0.3-0.1-1.3,1c-10.2,11.5-24.9,34-25.4,35.2
	c-0.3,0.6-0.2,0.4-0.3,0.8c0,0.2,0.1,0.6,0.2,1.3c0.1,0.9,3.4,16.5,12.5,33.5c0.4,0.8,0.6,1.4,0.8,1.4c0.2,0,0.4-0.8,0.8-1.4
	c0.6-1.2,13.3-25,25.5-37.2c0.7-0.7,0.8-0.8,0.8-1.1c0-0.3-0.3-1-0.6-1.7c-6.8-14.5-11.8-29.6-12.1-30.4
	C88.1,85.8,87.9,85.3,87.8,85.2z M87.8,85.2l0.1-0.4l-0.3-0.1l-0.3,0.1c-0.3,0.2-0.5,0.4-1.1,1.1c-5.1,5.8-11.3,14.3-16.4,21.5
	c-2.5,3.6-4.7,6.9-6.3,9.4c-0.8,1.2-1.5,2.3-1.9,3c-0.5,0.8-0.8,1.2-0.9,1.4c-0.1,0.3-0.2,0.4-0.2,0.5c-0.1,0.1-0.1,0.2-0.1,0.4
	l0,0.2c0,0.3,0.1,0.6,0.2,1.2c0,0.3,0.3,1.4,0.7,3.3c1.4,5.6,4.9,17.6,11.8,30.4c0.2,0.4,0.3,0.7,0.5,1l0.2,0.4
	c0.1,0.1,0.2,0.3,0.5,0.3c0.2,0,0.3-0.1,0.3-0.1l0.2-0.3c0.2-0.3,0.4-0.8,0.5-1.1c0.6-1.2,13.3-24.9,25.5-37.1
	c0.3-0.3,0.5-0.5,0.7-0.8c0.2-0.2,0.2-0.5,0.2-0.7v0c0-0.3-0.1-0.5-0.2-0.8c-0.1-0.3-0.3-0.7-0.4-1c-6.7-14.5-11.8-29.6-12.1-30.4
	c-0.2-0.4-0.3-0.7-0.4-1l-0.2-0.3L88.1,85l-0.2-0.1L87.8,85.2l-0.1,0.4l0.1-0.3l-0.2,0.2l0.1,0.1l0.1-0.3l-0.2,0.2h0
	c0,0,0.1,0.2,0.2,0.4c0.1,0.2,0.2,0.5,0.3,0.8c0.3,0.8,5.4,15.9,12.2,30.4c0.2,0.4,0.3,0.7,0.4,1c0.1,0.3,0.2,0.5,0.2,0.5v0
	c0,0.2,0,0.1,0,0.2c-0.1,0.1-0.2,0.3-0.6,0.6c-12.3,12.3-24.9,36.1-25.6,37.3c-0.2,0.3-0.3,0.7-0.4,0.9l-0.1,0.3l0,0l0.1,0.1
	l-0.1-0.1l0,0l0.1,0.1l-0.1-0.1l0.2,0.3V158l-0.2,0.1l0.2,0.3V158v0.3l0.1-0.2l-0.1,0v0.3l0.1-0.2l-0.1,0.1l0.1-0.1l0,0l-0.1,0.1
	l0.1-0.1h0h0l0,0h0h0c0,0-0.1-0.2-0.2-0.4c-0.1-0.2-0.2-0.5-0.4-0.8c-4.5-8.5-7.6-16.6-9.6-22.7c-1-3.1-1.7-5.6-2.1-7.5
	c-0.5-1.8-0.7-3-0.7-3.2c-0.1-0.6-0.2-1-0.2-1.1l0,0c0-0.2,0-0.2,0-0.2c0,0,0.1-0.2,0.2-0.5c0-0.1,0.3-0.6,0.8-1.3
	c3.3-5.2,15.7-23.7,24.6-33.8c0.4-0.4,0.6-0.7,0.8-0.8l0.1-0.1l0-0.1l0,0.1l0,0l0-0.1l0,0.1l-0.1-0.2v0.2l0.1,0l-0.1-0.2v0.2v-0.1
	l0,0.1l0,0v-0.1l0,0.1l0,0L87.8,85.2z M52,161.1c0.5,2.6,1.2,2.2,1.2,2.2s14.4,0.5,14.1-0.3c-1-2.4-7.6-12.7-11.2-27
	c-0.4-1.5-1.8-6.3-2.1-7.5c0,0-0.3,0.5-0.7,2.6C53.3,131.2,50.6,153.7,52,161.1z M53.3,131.2l0.4,0.1c0.2-1,0.4-1.7,0.5-2.1
	c0.1-0.2,0.1-0.3,0.1-0.4l0-0.1h0l-0.4-0.2l-0.4,0.1c0.3,1.3,1.7,6,2.1,7.5c1.8,7.2,4.3,13.4,6.6,18c2.2,4.7,4.1,7.9,4.6,9l0.3-0.1
	h-0.3l0,0.1l0.3-0.1h-0.3h0.3l-0.2-0.2l-0.1,0.2h0.3l-0.2-0.2l0.1,0.1l-0.1-0.2l0,0l0.1,0.1l-0.1-0.2l0,0l0,0h0l0,0l0,0
	c0,0-0.3,0.1-0.6,0.1c-1,0.1-2.8,0.2-4.7,0.2c-2,0-4.1,0-5.7-0.1c-1.6,0-2.7-0.1-2.7-0.1l-0.1,0l-0.1,0l0.1,0.2v-0.2l-0.1,0l0.1,0.2
	v-0.2v0.1l0-0.1l0,0v0.1l0-0.1l-0.1,0c-0.1-0.1-0.4-0.6-0.7-1.9c-0.3-1.4-0.4-3.5-0.4-6c0-4.7,0.4-10.7,0.8-15.5
	c0.2-2.4,0.4-4.5,0.6-6c0.2-1.5,0.3-2.4,0.3-2.4L53.3,131.2l0.4,0.1L53.3,131.2l-0.4,0c0,0-1.7,14.3-1.7,23.9c0,2.4,0.1,4.6,0.4,6.1
	c0.2,1.1,0.4,1.7,0.7,2c0.2,0.4,0.6,0.5,0.8,0.5l0.2,0l-0.2-0.4l0,0.4c0,0,4.5,0.2,8.5,0.2c1.5,0,2.9,0,4-0.1c0.5,0,1-0.1,1.3-0.1
	c0.2,0,0.3-0.1,0.4-0.1l0.2-0.1c0.1-0.1,0.2-0.2,0.2-0.4l0-0.2c-0.5-1.3-2.4-4.4-4.6-9c-2.2-4.6-4.7-10.8-6.5-17.9
	c-0.4-1.6-1.8-6.3-2.1-7.5l-0.2-1l-0.5,0.9c0,0.1-0.3,0.6-0.8,2.7l0,0l0,0L53.3,131.2z M105.5,127.1c-0.1-0.1-0.1-0.1-1,0.8
	c-9.1,9.1-21.1,31.7-21.9,33.1c-0.7,1.4-1.5,2.1-1,2.1c0.6,0,45.2,0,45.4,0c0,0,0.4-1.5-0.3-1.7c-1.8-0.4-20.3-32.4-20.7-33.2
	C105.7,127.4,105.5,127.1,105.5,127.1z M105.5,127.1l0.2-0.4c0,0-0.1-0.1-0.2-0.1l-0.3,0.1c-0.2,0.1-0.4,0.3-0.9,0.8
	c-4.6,4.6-9.9,12.6-14.1,19.5c-4.2,7-7.4,13-7.8,13.7c-0.3,0.5-0.5,0.9-0.8,1.3c-0.1,0.2-0.2,0.3-0.3,0.5c-0.1,0.1-0.1,0.3-0.2,0.5
	c0,0.1,0.1,0.4,0.2,0.4l0.4,0.1c0.6,0,45.2,0,45.4,0h0.3l0.1-0.3c0,0,0.1-0.5,0.1-1c0-0.2,0-0.4-0.1-0.6c-0.1-0.2-0.3-0.5-0.6-0.5
	l0,0.2l0.1-0.1l0,0l0,0.2l0.1-0.1l0,0c-0.2-0.1-0.8-0.8-1.5-1.8c-2.5-3.5-7.2-11.1-11.3-18c-2-3.4-3.9-6.6-5.3-9
	c-0.7-1.2-1.3-2.2-1.7-2.9c-0.4-0.7-0.7-1.2-0.7-1.2c-0.4-0.8-0.7-1.2-0.7-1.2l-0.1-0.1l-0.1-0.1L105.5,127.1l-0.3,0.2
	c0,0,0.1,0.1,0.2,0.3c0.1,0.2,0.3,0.5,0.5,0.9c0.1,0.1,0.4,0.7,0.9,1.7c1.9,3.3,6.5,11.1,10.8,18.1c2.1,3.5,4.2,6.8,5.8,9.3
	c0.8,1.2,1.5,2.3,2.1,3c0.3,0.4,0.5,0.7,0.7,0.9c0.2,0.2,0.4,0.4,0.6,0.5l0,0l0,0l0,0l0,0l0,0l0,0.1l0,0.3c0,0.2,0,0.4-0.1,0.5
	c0,0.2-0.1,0.3-0.1,0.3l0.4,0.1v-0.4c-0.2,0-44.9,0-45.4,0l0,0l-0.1,0.3l0.2-0.2l-0.1-0.1l-0.1,0.3l0.2-0.2l-0.2,0.2h0.3l-0.1-0.2
	l-0.2,0.2h0.3h-0.2l0.2,0l0,0h-0.2l0.2,0l0,0c0.1-0.2,0.6-0.9,1.1-1.8c0.4-0.7,3.5-6.7,7.8-13.6c4.2-7,9.5-14.9,14-19.4
	c0.3-0.3,0.5-0.5,0.7-0.6l0.1-0.1l-0.1-0.2v0.3l0.1,0l-0.1-0.2v0.3L105.5,127.1l-0.2,0.4l0.1,0L105.5,127.1l-0.2,0.4l0,0
	L105.5,127.1l-0.3,0.2L105.5,127.1z M112.3,121.1c0,0,12.7,23.5,25,39.7c0.5,0.6,0.9,1.1,0.9,1.1l2.2-0.1c0,0,0.9-1,1.5-1.6
	c0.6-0.6,9.2-9,35.7-23.8c0.8-0.5,0.6-0.5,0.8-0.6c0,0-0.3-0.8-0.7-1.6c-0.4-0.7-20.3-45-20.6-45.5c-0.2-0.4-0.6-0.5-0.7-0.6
	c-0.2-0.1-0.5,0-1,0.2c-22.6,11.3-41.5,29.7-42.7,30.7c-0.3,0.3-0.8,0.7-0.8,0.9C111.9,120.4,112.3,121.1,112.3,121.1z M111.9,120
	l0.4,0l-0.2,0l0.2,0.1l0-0.1l-0.2,0l0.2,0.1l0.2-0.3l0.5-0.4c0.3-0.3,1.7-1.6,4-3.6c6.9-6.1,21.7-18.6,38.6-27
	c0.3-0.1,0.5-0.2,0.6-0.2l0.1,0c0.1,0,0.4,0.2,0.5,0.4l0,0l0,0l0,0l0,0l0,0c0.3,0.5,5.3,11.8,10.4,22.9c2.5,5.6,5,11.1,6.9,15.3
	c1,2.1,1.7,3.9,2.3,5.1c0.6,1.3,0.9,2,1,2.1c0.2,0.4,0.4,0.8,0.5,1.1c0.1,0.3,0.2,0.5,0.2,0.5l0.4-0.1l-0.3-0.3l-0.1,0.2l0,0l0,0
	l0,0l0,0l0,0l0,0c0,0-0.1,0.1-0.5,0.3c-26.5,14.8-35.2,23.3-35.8,23.8c-0.6,0.6-1.5,1.6-1.5,1.6l0.3,0.3l0-0.4l-2.2,0.1l0,0.4
	l0.3-0.3c0,0-0.4-0.5-0.9-1.1c-6.1-8-12.4-18-17.1-25.8c-2.4-3.9-4.3-7.4-5.7-9.8c-1.4-2.5-2.2-3.9-2.2-3.9l0,0l0,0l-0.1-0.1
	l-0.2-0.4l-0.1-0.3l0,0l0,0v0L111.9,120l-0.4,0l0,0.1c0,0.3,0.1,0.6,0.3,0.9c0.1,0.2,0.2,0.4,0.2,0.4l0.3-0.2l-0.4,0.2
	c0,0,12.7,23.5,25,39.7c0.5,0.6,0.9,1.1,0.9,1.1l0.1,0.2l2.5-0.1l0.1-0.1c0,0,0.9-1,1.5-1.5c0.5-0.5,9.1-8.9,35.6-23.7
	c0.4-0.2,0.6-0.4,0.7-0.5l0.1-0.2v0l0.2-0.2l-0.1-0.2c0,0-0.3-0.8-0.7-1.6c0-0.1-0.4-0.8-1-2.1c-2-4.5-6.9-15.2-11.2-24.9
	c-2.2-4.8-4.2-9.4-5.8-12.8c-0.8-1.7-1.4-3.1-1.8-4.1c-0.2-0.5-0.4-0.9-0.5-1.2l-0.2-0.3l-0.1-0.2c-0.3-0.5-0.8-0.7-0.8-0.7
	l-0.4-0.1c-0.3,0-0.6,0.1-0.9,0.3c-11.4,5.7-21.8,13.1-29.5,19.3c-3.9,3.1-7,5.8-9.3,7.9c-2.3,2-3.7,3.4-4,3.6
	c-0.2,0.1-0.4,0.3-0.6,0.5l-0.2,0.3c-0.1,0.1-0.1,0.2-0.2,0.4L111.9,120l-0.4,0L111.9,120z M223.8,67.9c-0.8-0.1-1.1,0.1-1.7,0.1
	c-28.7,3.9-51,13.6-55.8,15.6c-0.7,0.3-1.4,0.5-1.4,0.7c-0.1,0.2,0.1,0.8,0.6,1.7c1.1,2.3,20.2,44.3,20.5,44.8
	c0.4,0.7,0.5,1.1,0.9,1.5c0.1,0.2,0.6,0,1.2-0.3c14.5-6.2,28.3-11.1,46.7-14.2c1.3-0.2,1.2-0.2,1.4-0.6c0.1-0.2,0.1-0.3-0.2-1.7
	c-3.8-17.6-9.1-38.2-11.2-46.1C224.2,68.1,223.8,67.9,223.8,67.9z M223.8,67.9l0.1-0.4c-0.2,0-0.4-0.1-0.6-0.1
	c-0.5,0-0.8,0.1-1.2,0.2c-28.8,3.9-51.1,13.7-55.9,15.6c-0.3,0.1-0.7,0.3-1,0.4l-0.4,0.2c-0.1,0.1-0.2,0.1-0.3,0.3l-0.1,0.3
	c0,0.2,0.1,0.5,0.2,0.8c0.1,0.3,0.3,0.6,0.5,1c0.6,1.1,5.6,12.2,10.5,23c2.5,5.4,4.9,10.8,6.8,14.8c0.9,2,1.7,3.7,2.2,4.9
	c0.3,0.6,0.5,1.1,0.7,1.4c0.2,0.3,0.2,0.5,0.3,0.6c0.4,0.7,0.5,1.1,0.9,1.5c0.1,0.2,0.4,0.2,0.5,0.2c0.2,0,0.4-0.1,0.6-0.1
	c0.2-0.1,0.4-0.2,0.6-0.2c14.5-6.2,28.2-11.1,46.6-14.2c0.6-0.1,0.9-0.1,1.2-0.3l0.4-0.3l0.2-0.3l0.1-0.4c0-0.3-0.1-0.6-0.3-1.6
	c-3.8-17.6-9.1-38.2-11.2-46.1c-0.2-0.8-0.4-1.2-0.6-1.5c-0.2-0.3-0.3-0.4-0.5-0.4l0,0l0,0L223.8,67.9l-0.1,0.4l0.1-0.2l-0.1,0.2
	l0.1,0l0.1-0.2l-0.1,0.2c0,0,0.3,0.3,0.6,1.3c2.1,7.8,7.4,28.5,11.2,46c0.2,0.9,0.3,1.3,0.3,1.4v0l0,0l-0.1,0.2l0,0l0,0l0,0l0,0l0,0
	c0,0-0.3,0.1-1,0.2c-18.5,3.1-32.3,8.1-46.8,14.2c-0.2,0.1-0.4,0.2-0.6,0.2c-0.2,0.1-0.3,0.1-0.3,0.1v0.2l0.1-0.1l-0.1,0v0.2
	l0.1-0.1l-0.1,0.3l0.2-0.2l-0.1-0.1l-0.1,0.3l0.2-0.2c-0.3-0.4-0.4-0.7-0.8-1.4l-0.1,0l0.1,0l0,0l-0.1,0l0.1,0c0-0.1-0.4-0.8-1-2.1
	c-3.9-8.6-18.5-40.7-19.5-42.7c-0.2-0.4-0.3-0.7-0.4-0.9c-0.1-0.2-0.1-0.4-0.1-0.4h0l0,0l0,0l0,0l0,0l-0.1,0l0.1,0.1l0,0l-0.1,0
	l0.1,0.1l-0.2-0.1l0.1,0.2l0-0.1l-0.2-0.1l0.1,0.2c0,0,0.2-0.1,0.4-0.2c0.2-0.1,0.5-0.2,0.8-0.3c4.8-1.9,27-11.6,55.7-15.5
	c0.5-0.1,0.8-0.2,1.1-0.2c0.1,0,0.3,0,0.5,0L223.8,67.9l-0.1,0.4L223.8,67.9z M233.5,68.8c3.2,9.2,10.7,44.4,10.9,45.6
	c0.2,1.2,0.4,1.6,0.4,1.6c0.3,0.2,1.5-0.1,2.1-0.1c1-0.1,22.4-3.1,45.8,3c0.8,0.2,2.1,0.5,2.6,0.3c0.3-0.1,0.4-1.8,0.4-2.3
	c0.1-2.2,1-15.6-3.7-39.5c-0.2-1.2-0.3-0.8-0.6-1.3c-0.3-0.5-0.9-0.8-1.7-1.1c-22.2-9.2-53.2-8.1-54.4-8.1c-1.2,0-1.9,0.1-2.1,0.6
	C233.2,67.4,233.2,67.8,233.5,68.8z M233.2,67.4l0.4,0.2c0.1-0.1,0.2-0.2,0.4-0.3c0.3-0.1,0.7-0.1,1.3-0.1c0.2,0,1.6,0,3.8,0
	c9.1,0,32.7,0.7,50.4,8.1c0.8,0.3,1.4,0.6,1.5,0.9l0.2,0.3l0.1,0.1c0,0.1,0.1,0.3,0.2,0.7c3.3,16.8,3.8,28.4,3.8,34.6
	c0,2.6-0.1,4.2-0.1,4.8c0,0.3,0,0.8-0.1,1.3c0,0.2-0.1,0.5-0.1,0.6l-0.1,0.1l0,0l0.2,0.1l-0.1-0.2l-0.1,0.1l0.2,0.1l-0.1-0.2l0,0
	l-0.1,0c-0.5,0-1.5-0.2-2.1-0.4c-11.7-3-22.9-3.8-31.3-3.8c-4.3,0-7.8,0.2-10.3,0.4c-2.5,0.2-4.1,0.4-4.3,0.4
	c-0.5,0-1.3,0.2-1.7,0.2l-0.2,0l0,0l0,0l0,0l0,0l0,0l0,0l-0.2,0.4l0.4-0.2l-0.1,0.1l0.1-0.1v0l-0.1,0.1l0.1-0.1c0,0-0.2-0.4-0.4-1.5
	c-0.2-1.2-7.7-36.4-10.9-45.7c-0.2-0.7-0.3-1-0.3-1.1l0,0l-0.2,0l0.2,0l0,0l-0.2,0l0.2,0L233.2,67.4l0.4,0.2L233.2,67.4l-0.4-0.1
	l0,0.2c0,0.2,0,0.7,0.3,1.4c3.1,9.2,10.7,44.4,10.9,45.6c0.2,1.2,0.4,1.7,0.5,1.7l0.1,0.1l0.1,0.1c0.2,0.1,0.4,0.1,0.6,0.1
	c0.6,0,1.4-0.2,1.8-0.2c0.3,0,1.8-0.2,4.4-0.4c2.5-0.2,6.1-0.4,10.3-0.4c8.4,0,19.5,0.8,31.1,3.8c0.7,0.2,1.6,0.4,2.3,0.4
	c0.2,0,0.3,0,0.5-0.1c0.2-0.1,0.3-0.2,0.3-0.3c0.2-0.3,0.2-0.8,0.3-1.3c0-0.5,0.1-0.9,0.1-1.2c0-0.6,0.1-2.3,0.1-4.9
	c0-6.2-0.5-17.8-3.8-34.7c-0.1-0.6-0.2-0.8-0.3-1.1l-0.2-0.2l-0.1-0.2c-0.4-0.7-1.1-0.9-1.9-1.3c-18-7.4-41.6-8.1-50.8-8.1
	c-2.2,0-3.6,0-3.8,0c-0.6,0-1.1,0-1.5,0.1c-0.4,0.1-0.8,0.3-1,0.7l0,0.1l0,0.1L233.2,67.4z M302.1,83.6c0.3,1.7,3.2,20.8,2,37.2
	c0,0.7-0.1,1.3,0.2,1.7c0.4,0.5,0.9,0.6,1.7,0.9c1,0.4,13.4,4.8,25.3,17.8c1.1,1.2,1.3,2.3,1.9,1.9c0.3-0.2,0.3-1.8,0.3-2.5
	c-0.1-19.2-3.8-36.7-4.1-37.8c-0.3-1.2-0.4-1.1-0.9-1.9c-0.6-1-1-1.1-1.2-1.5s-13-11.7-23.6-17.8c-0.8-0.5-1.7-1.2-2-0.9
	C301.7,80.8,301.9,82,302.1,83.6z M301.7,80.8l0.3,0.3l-0.1-0.1l0,0.1l0,0l-0.1-0.1l0,0.1l0-0.1v0.1l0,0l0-0.1v0.1
	c0,0,0.3,0.1,0.6,0.3c0.3,0.2,0.6,0.4,1,0.7c5.3,3,11.2,7.4,15.7,11c2.3,1.8,4.2,3.4,5.6,4.6c0.7,0.6,1.2,1.1,1.6,1.5
	c0.2,0.2,0.3,0.3,0.4,0.4l0.1,0.1l0,0l0.2-0.2l-0.2,0.1l0,0l0.2-0.2l-0.2,0.1c0.1,0.3,0.3,0.4,0.5,0.6c0.2,0.2,0.4,0.4,0.7,0.9
	c0.3,0.4,0.4,0.6,0.5,0.8c0.1,0.2,0.2,0.4,0.3,1c0.3,1.1,3.9,18.6,4,37.7c0,0.2,0,0.5,0,0.8c0,0.4,0,0.7,0,1l-0.1,0.3l0,0.1l0.1,0.1
	l-0.1-0.1l-0.1,0l0.1,0.1l-0.1-0.1l0,0l0,0.1v-0.1l0,0l0,0.1v-0.1v0.1l0-0.1l0,0v0.1l0-0.1c0,0-0.2-0.2-0.4-0.6
	c-0.2-0.3-0.5-0.8-1-1.3c-6-6.6-12.1-11-16.8-13.8c-4.7-2.8-8.1-4-8.6-4.2c-0.4-0.2-0.8-0.3-1-0.4c-0.2-0.1-0.4-0.2-0.6-0.4
	c-0.1-0.1-0.2-0.3-0.2-0.6c0-0.2,0-0.5,0-0.8c0.2-2.8,0.3-5.6,0.3-8.4c0-14-2.1-27.5-2.3-28.9c-0.3-1.6-0.4-2.8-0.4-2.8L301.7,80.8
	l0.3,0.3L301.7,80.8l-0.4,0.1c0,0,0.2,1.3,0.4,2.8c0.2,1.4,2.3,14.9,2.3,28.8c0,2.8-0.1,5.6-0.3,8.3c0,0.3-0.1,0.6-0.1,0.8
	c0,0.4,0.1,0.8,0.4,1.2c0.3,0.3,0.6,0.5,0.9,0.6c0.3,0.1,0.6,0.2,1,0.4c0.5,0.2,3.8,1.4,8.5,4.1c4.7,2.8,10.7,7.1,16.6,13.6
	c0.5,0.5,0.8,1,1,1.3c0.1,0.2,0.2,0.4,0.4,0.5c0.1,0.1,0.3,0.3,0.6,0.3c0.2,0,0.3-0.1,0.4-0.1c0.2-0.1,0.3-0.3,0.3-0.4
	c0.1-0.4,0.2-1.1,0.2-1.6c0-0.3,0-0.6,0-0.8c-0.1-19.2-3.8-36.7-4.1-37.9c-0.1-0.6-0.3-0.9-0.4-1.2c-0.2-0.3-0.3-0.5-0.5-0.8
	c-0.3-0.5-0.6-0.9-0.8-1.1c-0.2-0.2-0.3-0.3-0.4-0.4l-0.1-0.2c-0.3-0.3-1.2-1.2-2.7-2.4c-4.4-3.7-13.2-10.9-21-15.4
	c-0.3-0.2-0.7-0.4-1-0.6c-0.3-0.2-0.6-0.4-1-0.4c-0.2,0-0.4,0.1-0.5,0.2l-0.1,0.1l0,0.2L301.7,80.8z M303.5,134
	c-1,11.3-4.2,25.4-4.5,26.4c-0.3,1-0.8,2.5-0.8,2.5l32.7-0.5c0,0,0.6-2.3,1-4.1c0.4-1.8,0.1-0.5,0.1-1.1s-0.3-0.8-0.7-1.4
	c-9.7-15.3-24.1-22.5-25.4-23.1c-1.5-0.8-2.2-0.8-2.3-0.7C303.7,132,303.6,133.4,303.5,134z M303.7,132l0.3,0.3l-0.2-0.2l0.1,0.2
	l0.1-0.1l-0.2-0.2l0.1,0.2v0v0l0,0v0v0l0,0c0.2,0,0.8,0.2,1.9,0.7c1.2,0.6,15.5,7.7,25.2,22.9c0.2,0.3,0.4,0.6,0.5,0.7
	c0.1,0.2,0.1,0.3,0.1,0.5l0,0.2l0.1,0.2c0,0.1,0.2,0.2,0.4,0.2c0.2,0,0.3-0.1,0.3-0.2l0.1-0.1l0,0l-0.2-0.1l0.2,0.1l0,0l-0.2-0.1
	l0.2,0.1l-0.3-0.2l0.3,0.3l0,0l-0.3-0.2l0.3,0.3l-0.3-0.3l0.2,0.3l0.1-0.1l-0.3-0.3l0.2,0.3l-0.2-0.3v0.4l0.2-0.1l-0.2-0.3v0.4v-0.4
	l-0.3,0.3l0.3,0.1v-0.4l-0.3,0.3l0.3-0.3l-0.4,0.1l0.1,0.2l0.3-0.3l-0.4,0.1l0.4-0.1h-0.4l0,0.1l0.4-0.1h-0.4h0.3l-0.3-0.1l0,0.1
	h0.3l-0.3-0.1c0,0-0.1,0.3-0.2,1c-0.4,1.8-1,4.1-1,4.1l0.4,0.1l0-0.4l-32.7,0.5l0,0.4l0.4,0.1c0,0,0.5-1.5,0.8-2.5
	c0.1-0.5,1-4.3,2-9.4c1-5.1,2-11.4,2.5-17.1c0.1-0.6,0.2-2.1,0.2-2.1L303.7,132l0.3,0.3L303.7,132l-0.4,0c0,0-0.2,1.4-0.2,2.1
	c-0.5,5.6-1.6,12-2.5,17c-1,5-1.8,8.8-1.9,9.3c-0.3,1-0.8,2.5-0.8,2.5l-0.2,0.5l33.6-0.5l0.1-0.3c0,0,0.5-2.3,1-4.1
	c0.1-0.4,0.1-0.6,0.2-0.8l0-0.2l0-0.1l0-0.1l-0.1-0.2l-0.3-0.1c-0.2,0-0.3,0.1-0.3,0.1l-0.1,0.1l0,0v0l0.2,0.1l-0.2-0.2l0,0l0.2,0.1
	l-0.2-0.2l0.3,0.3V157c-0.2,0-0.3,0.1-0.3,0.1l0.3,0.3V157v0.4l0.3-0.2c0-0.1-0.2-0.2-0.3-0.2v0.4l0.3-0.2l-0.2,0.2l0.3,0l0-0.1
	l-0.2,0.2l0.3,0v-0.1c0-0.4-0.1-0.7-0.2-0.9c-0.1-0.2-0.3-0.4-0.5-0.7c-9.8-15.4-24.2-22.6-25.5-23.2c-1.2-0.6-1.8-0.8-2.3-0.8
	c-0.2,0-0.3,0-0.5,0.2l-0.1,0.1l0,0.1L303.7,132z M295,129c-0.1-0.4-0.4-0.4-1.7-1c-1.6-0.7-18.6-6.6-44-3.9
	c-0.8,0.1-1.7,0.3-2.6,0.5c-0.2,0.1-0.1,0.2,0.1,1.8c2.4,13.5,3.8,33.8,3.9,34.5c0.2,1.2,0.3,2,0.3,2l38.1,0.3c0,0,0.1,0,0.7-1.8
	c0.5-1.8,3.7-11,5.2-30.3C295.1,129.9,295,129,295,129z M295,129l0.4-0.1l-0.2-0.4c-0.2-0.2-0.4-0.3-0.6-0.4
	c-0.3-0.1-0.6-0.2-1.1-0.5c-0.7-0.3-3.9-1.5-9.3-2.5c-5.3-1.1-12.8-2.1-21.9-2.1c-4.1,0-8.4,0.2-13.1,0.7c-0.9,0.1-1.8,0.3-2.7,0.5
	l-0.3,0.2l-0.1,0.4c0,0.3,0.1,0.7,0.3,1.7c1.2,6.7,2.2,15.2,2.8,22c0.3,3.4,0.6,6.4,0.8,8.6c0.1,1.1,0.2,2,0.2,2.6
	c0.1,0.7,0.1,1,0.1,1.2c0.1,0.6,0.2,1.1,0.2,1.4s0.1,0.5,0.1,0.5l0,0.4l38.9,0.3v-0.4l0,0h-0.4v0.4c0.2,0,0.3-0.1,0.4-0.2
	c0.1-0.2,0.3-0.5,0.7-1.9c0.6-1.8,3.7-11,5.3-30.3c0-0.4,0-0.8,0-1.1c0-0.6,0-1,0-1.1l0,0l0,0L295,129l-0.4,0c0,0,0,0.1,0,0.3
	c0,0.2,0,0.4,0,0.7c0,0.3,0,0.6,0,1c-1.6,19.3-4.7,28.4-5.2,30.2c-0.3,0.9-0.4,1.3-0.5,1.5l0,0.1l0,0l0.2,0.1l-0.2-0.2l0,0.1
	l0.2,0.1l-0.2-0.2l0.2,0.3v-0.4l-0.2,0.1l0.2,0.3v-0.4l-0.3,0.1l-0.1,0.3l0,0h0.4l0-0.4l-38.1-0.3l0,0.4l0.4,0c0,0-0.1-0.8-0.3-2
	c0,0,0-0.5-0.1-1.1c-0.4-4.5-1.7-21.5-3.8-33.4c-0.2-0.9-0.3-1.4-0.3-1.5v0l-0.3,0l0.2,0.2l0.1-0.1l-0.3,0l0.2,0.2l-0.2-0.2l0.1,0.3
	l0.1-0.1l-0.2-0.2l0.1,0.3l-0.1-0.1l0,0.1l0,0l-0.1-0.1l0,0.1c0.9-0.2,1.8-0.4,2.6-0.5c4.6-0.5,9-0.7,13-0.7c9,0,16.4,1,21.7,2.1
	c5.3,1.1,8.5,2.2,9.1,2.5c0.7,0.3,1.1,0.4,1.3,0.5l0.2,0.1l0,0.1L295,129l-0.4,0L295,129z M237.8,126.1c-0.8-0.2-1.5,0-2.3,0.1
	c-22.1,4.2-41.6,12.3-42.6,12.7c-1,0.4-2.2,1-2.4,1.5c0,0,0.4,1.2,1,2.3c0.4,0.8,8.9,17.7,9.2,18.4c0.3,0.7,0.4,1.9,0.4,1.9
	l40.6-0.1c0,0,0.6-1,0.6-1.7c0-0.7-4.1-33.1-4.1-33.4C238.1,127.2,237.8,126.1,237.8,126.1z M237.8,126.1l0.1-0.4
	c-0.3-0.1-0.6-0.1-0.8-0.1c-0.6,0-1.1,0.1-1.7,0.2c-22.1,4.2-41.7,12.3-42.7,12.7c-0.5,0.2-1.1,0.5-1.5,0.8c-0.5,0.3-0.9,0.5-1.1,1
	l-0.1,0.1l0.1,0.2c0,0,0.4,1.3,1,2.4c0.4,0.8,8.9,17.7,9.2,18.4c0.1,0.3,0.2,0.7,0.3,1.1c0,0.2,0,0.3,0.1,0.5l0,0.2l0,0.4l41.2-0.1
	l0.1-0.2c0,0,0.1-0.3,0.3-0.6c0.1-0.4,0.3-0.8,0.3-1.3c0-0.1,0-0.2,0-0.5c-0.2-2.1-1.2-10.2-2.2-17.9c-0.5-3.8-0.9-7.6-1.3-10.3
	c-0.2-1.4-0.3-2.5-0.4-3.3c-0.1-0.4-0.1-0.7-0.1-0.9l0-0.3l0-0.1v0l-0.3,0h0.3v0l-0.3,0h0.3c0-0.7-0.4-1.8-0.4-1.8l-0.1-0.2
	l-0.2-0.1L237.8,126.1l-0.4,0.1c0,0,0.1,0.3,0.2,0.6c0.1,0.3,0.2,0.8,0.2,1l0,0.2c0.1,1.1,1.1,9.2,2.1,17.2c0.5,4,1,7.9,1.3,10.9
	c0.2,1.5,0.3,2.7,0.4,3.6c0.1,0.4,0.1,0.8,0.1,1.1l0,0.3l0,0.1l0,0h0h0l0,0h0h0c0,0.2-0.1,0.6-0.2,1c-0.1,0.2-0.1,0.3-0.2,0.4
	l-0.1,0.2l0.4,0.2l0-0.4l-40.6,0.1l0,0.4l0.4,0c0,0-0.1-1.2-0.5-2c-0.3-0.7-8.8-17.6-9.2-18.4c-0.3-0.5-0.5-1.1-0.7-1.6
	c-0.2-0.4-0.3-0.7-0.3-0.7l-0.4,0.1l0.4,0.2c0,0,0.3-0.4,0.8-0.6c0.4-0.3,1-0.5,1.4-0.7c0.9-0.4,20.5-8.5,42.5-12.7
	c0.6-0.1,1.1-0.2,1.5-0.2c0.2,0,0.4,0,0.6,0.1L237.8,126.1l-0.4,0.1L237.8,126.1z M182.1,144.4c-0.3-0.1-2.1,0.9-2.4,1.1
	c-16.1,9.7-24.2,15-24.9,15.8c-0.7,0.7-0.6,1.1-0.6,1.1s36.5,0.5,36.6,0.2c0.1-0.3,0.5-0.2,0.1-0.8c-0.8-1.3-7.2-14.6-7.5-15.4
	C182.8,145.1,182.4,144.4,182.1,144.4z M182.1,144.4l0.1-0.4l-0.1,0c-0.2,0-0.4,0.1-0.7,0.2c-0.7,0.3-1.7,0.8-1.9,1
	c-8.1,4.8-14.1,8.6-18.3,11.2c-2.1,1.3-3.6,2.4-4.8,3.1c-1.1,0.8-1.8,1.2-2,1.5c-0.6,0.6-0.7,1.1-0.7,1.4l0,0.1l0,0.4l0.4,0
	c0,0,22.1,0.3,31.9,0.3c1.4,0,2.6,0,3.4,0c0.4,0,0.7,0,1,0l0.3,0l0.1,0l0.1,0c0,0,0.1,0,0.2-0.2l0.1-0.1c0.1-0.1,0.2-0.3,0.2-0.5
	c0-0.2-0.1-0.4-0.2-0.6c-0.4-0.6-2.2-4.3-3.9-7.9c-1.7-3.6-3.4-7.1-3.6-7.5c-0.3-0.6-0.5-1.1-0.7-1.5c-0.2-0.3-0.4-0.6-0.8-0.7
	L182.1,144.4l-0.1,0.4v0l0,0l0,0v0l0,0c0,0,0.2,0.2,0.3,0.5c0.2,0.3,0.4,0.7,0.6,1.2c0.2,0.4,1.9,3.9,3.6,7.5
	c1.7,3.6,3.5,7.2,3.9,7.9l0.1,0.2l0,0l0,0h0v0l0,0h0h0.2l-0.1-0.1l0,0.1h0.2l-0.1-0.1l0.1,0.1l-0.1-0.1l0,0l0.1,0.1l-0.1-0.1l0,0
	c0,0-0.2,0.1-0.3,0.3l0.4,0.2l-0.2-0.4c0,0-0.1,0-0.2,0.2l0.4,0.2l-0.2-0.4l0.1,0.3l-0.1-0.3l0,0l0.1,0.3l-0.1-0.3l0,0l0,0h0l0,0
	l0,0c-0.1,0-0.6,0-1.4,0c-0.8,0-1.9,0-3.1,0c-4.9,0-12.9-0.1-19.7-0.1c-3.4,0-6.4-0.1-8.7-0.1c-2.2,0-3.6,0-3.6,0l0,0.4l0.4-0.1
	l-0.2,0h0.2l0,0l-0.2,0h0.2l0.1-0.2c0.1-0.1,0.2-0.3,0.4-0.6c0.1-0.1,0.8-0.6,1.9-1.4c3.3-2.3,10.9-7.1,23-14.3
	c0.2-0.1,0.6-0.4,1.1-0.6c0.2-0.1,0.5-0.2,0.7-0.3l0.3-0.1l0.1,0l0,0l0,0v0h0l0,0v0v-0.2l0,0.2l0,0v-0.2l0,0.2L182.1,144.4z"/>
<rect x="12.3" y="252.7" fill="#FFFFFF" width="375.6" height="5.5"/>
<rect id="top_line_1_" x="12.3" y="162.2" fill="#FFFFFF" width="375.6" height="5.5"/>
<g id="association_1_">
	<path id="a_3_" fill="#FFFFFF" d="M18.8,285.8l-0.9,4.9h-5.6l5.3-25h7l4.6,25h-5.6l-0.8-4.9H18.8z M22.3,281.4l-0.6-4.7
		c-0.2-1.4-0.5-4.1-0.7-5.7h-0.1c-0.3,1.6-0.6,4.3-0.9,5.7l-0.7,4.7H22.3z"/>
	<path id="s_3_" fill="#FFFFFF" d="M51.9,285.1c1.1,0.6,2.9,1,4.3,1c2.2,0,3.1-1,3.1-2.2c0-1.6-1-2.3-3.2-3.6c-4-2.4-4.7-5.2-4.7-7
		c0-4.1,2.7-7.7,8.5-7.7c1.7,0,3.3,0.4,4.1,0.9l-0.8,4.9c-0.7-0.4-1.8-0.9-3.3-0.9c-1.9,0-2.9,1-2.9,2.2c0,1.1,0.5,1.8,3.3,3.4
		c3.4,1.9,4.6,4.6,4.6,7.1c0,4.7-3.5,7.8-8.8,7.8c-2.2,0-4.2-0.5-5-1L51.9,285.1z"/>
	<path id="s_2_" fill="#FFFFFF" d="M87.8,285.1c1.1,0.6,2.9,1,4.3,1c2.2,0,3.1-1,3.1-2.2c0-1.6-1-2.3-3.2-3.6c-4-2.4-4.7-5.2-4.7-7
		c0-4.1,2.7-7.7,8.5-7.7c1.7,0,3.3,0.4,4.1,0.9l-0.8,4.9c-0.7-0.4-1.8-0.9-3.3-0.9c-1.9,0-2.9,1-2.9,2.2c0,1.1,0.5,1.8,3.3,3.4
		c3.4,1.9,4.6,4.6,4.6,7.1c0,4.7-3.5,7.8-8.8,7.8c-2.2,0-4.2-0.5-5-1L87.8,285.1z"/>
	<path id="o_1_" fill="#FFFFFF" d="M131.3,291.1c-6.3,0-8.3-6.7-8.3-12.9c0-6.2,2.6-12.7,8.6-12.7c6.8,0,8.1,7.5,8.1,12.2
		C139.8,287.2,136.4,291.1,131.3,291.1L131.3,291.1z M131.5,286.1c1.6,0,2.3-3,2.3-8.1c0-4.3-0.6-7.6-2.3-7.6
		c-1.7,0-2.5,3.3-2.5,7.7C128.9,283.1,129.8,286.1,131.5,286.1L131.5,286.1z"/>
	<path id="c_1_" fill="#FFFFFF" d="M175.9,290.4c-0.7,0.3-2.1,0.6-3.8,0.6c-7,0-9.9-5.8-9.9-12.3c0-9.2,5.4-13.1,10.6-13.1
		c1.8,0,3,0.4,3.5,0.7l-0.9,4.8c-0.6-0.3-1.2-0.5-2.1-0.5c-2.8,0-5,2.3-5,7.9c0,5.2,2,7.5,4.9,7.5c0.7,0,1.6-0.1,2.2-0.3
		L175.9,290.4z"/>
	<path id="i_5_" fill="#FFFFFF" d="M204.9,265.8v25h-5.7v-25H204.9z"/>
	<path id="a_2_" fill="#FFFFFF" d="M234.3,285.8l-0.9,4.9h-5.6l5.3-25h7l4.6,25h-5.6l-0.8-4.9H234.3z M237.9,281.4l-0.6-4.7
		c-0.2-1.4-0.5-4.1-0.7-5.7h-0.1c-0.3,1.6-0.6,4.3-0.9,5.7l-0.7,4.7H237.9z"/>
	<path id="t_1_" fill="#FFFFFF" d="M269,271.1h-4.3v-5.3h14.5v5.3h-4.4v19.6H269V271.1z"/>
	<path id="i_4_" fill="#FFFFFF" d="M308.1,265.8v25h-5.7v-25H308.1z"/>
	<path id="_x30__1_" fill="#FFFFFF" d="M340,291.1c-6.3,0-8.3-6.7-8.3-12.9c0-6.2,2.6-12.7,8.6-12.7c6.8,0,8.1,7.5,8.1,12.2
		C348.5,287.2,345.1,291.1,340,291.1L340,291.1z M340.2,286.1c1.6,0,2.3-3,2.3-8.1c0-4.3-0.6-7.6-2.3-7.6c-1.7,0-2.5,3.3-2.5,7.7
		C337.6,283.1,338.5,286.1,340.2,286.1L340.2,286.1z"/>
	<path id="n_1_" fill="#FFFFFF" d="M372.2,290.8v-25h5.2l3.5,9c0.6,1.6,1.8,4.7,2.4,6.7h0.1c-0.1-2-0.6-6.9-0.6-11.6v-4h5v25h-5.2
		l-3.4-8.4c-0.8-1.9-1.9-5.2-2.4-7.1h-0.1c0.1,2.2,0.3,6.3,0.3,11.2v4.3H372.2z"/>
</g>
<g id="highedweb_1_">
	<path id="h_3_" fill="#FFFFFF" d="M28.2,176.5v26.2h11.4v-26.2h15.5V244H39.6v-26.8H28.2V244H12.7v-67.5H28.2z"/>
	<path id="i_3_" fill="#FFFFFF" d="M76.5,187.8V244H63.6v-56.2H76.5z"/>
	<path id="g_1_" fill="#FFFFFF" d="M117.1,242.5c-2.4,0.9-8,2-12.3,2c-7.1,0-12.1-2-15.8-5.6c-5.2-4.9-7.7-13.4-7.5-22.9
		c0.3-19.9,12.2-28.8,25-28.8c4.6,0,7.9,0.9,9.7,1.8l-2.1,11.1c-1.7-0.8-3.8-1.3-6.4-1.3c-7.6,0-12.8,4.9-12.8,18.4
		c0,11.8,4.7,16.4,9,16.4c0.5,0,1,0,1.4-0.2V222h-4.1v-10.5h15.9V242.5z"/>
	<path id="h_2_" fill="#FFFFFF" d="M139.7,187.8v21.9h9.5v-21.9h12.9V244h-12.9v-22.4h-9.5V244h-12.9v-56.2H139.7z"/>
	<path id="e_3_" fill="#FFFFFF" d="M201.2,215.4h-14.7v15.2H203V244h-32v-67.5h30.9v13.4h-15.4v12.6h14.7V215.4z"/>
	<path id="d_1_" fill="#FFFFFF" d="M209.2,188.6c2.8-0.6,7.3-1.1,12.2-1.1c7.6,0,12.9,1.8,16.7,5.3c5,4.6,7.2,12.1,7.2,22.6
		c0,10.8-2.8,19.3-8.3,23.9c-3.9,3.4-9.5,5.2-17.9,5.2c-3.8,0-7.6-0.4-9.8-0.7V188.6z M222.1,233.8c0.4,0.2,1.2,0.2,1.8,0.2
		c4.5,0,8.1-5.2,8.1-19.1c0-10.4-2.4-17.1-8-17.1c-0.7,0-1.3,0-1.8,0.3V233.8z"/>
	<path id="w_1_" fill="#FFFFFF" d="M257.4,244l-10.9-67.5h16.1l2.2,24.4c0.7,7.4,1.1,15.2,1.9,23.4h0.2c1-8.2,2.4-15.6,3.7-23.4
		l4.2-24.4h12.4l3.7,24.4c1.1,7.4,2.1,14.8,2.9,23.4h0.2c0.7-8.4,1.4-15.6,2.1-23.4l2.3-24.4h15.1L302.2,244H286l-2.9-17.4
		c-1-5.9-1.9-13.6-2.8-22.2h-0.2c-1.3,8.4-2.4,16-3.7,22.2l-3.6,17.4H257.4z"/>
	<path id="e_2_" fill="#FFFFFF" d="M342.5,220.1h-12.3v12.7H344V244h-26.7v-56.2h25.8v11.2h-12.8v10.5h12.3V220.1z"/>
	<path id="b_1_" fill="#FFFFFF" d="M351.7,188.6c3.6-0.8,8.5-1.1,13.8-1.1c5.3,0,10.8,0.5,15,4c3.3,2.7,4.5,6.6,4.5,10.5
		c0,4.7-2.3,9.6-7.9,12.2v0.3c6.5,1.9,9.8,7.3,9.8,13c0,4.7-1.5,8.3-4.2,11c-3.4,3.7-9.3,5.9-20,5.9c-4.2,0-8.1-0.3-10.9-0.7V188.6z
		 M364.5,210.5h2.1c3.4,0,5.8-3,5.8-7c0-3.7-1.8-6.5-5.2-6.5c-1.1,0-2,0.1-2.7,0.3V210.5z M364.5,234.5c0.7,0.2,1.3,0.2,2.1,0.2
		c3.5,0,6.8-2.3,6.8-7.3c0-4.8-3.2-7.3-6.8-7.3h-2.2V234.5z"/>
</g>
</svg>
