<?xml version="1.0" encoding="utf-8"?>
<!-- Generator: Adobe Illustrator 18.1.1, SVG Export Plug-In . SVG Version: 6.00 Build 0)  -->
<svg version="1.1" baseProfile="tiny" id="Layer_1" xmlns="http://www.w3.org/2000/svg" xmlns:xlink="http://www.w3.org/1999/xlink"
	 x="0px" y="0px" viewBox="0 0 375 397" xml:space="preserve">
<g>
	<g>
		<path fill="#FFFFFF" d="M32.1,375.5H16.4L14.1,397H0l11.6-110.1h25.2L48.1,397H34.3L32.1,375.5z M17.9,361.3h12.6l-6.3-60.2
			L17.9,361.3z"/>
		<path fill="#FFFFFF" d="M56.9,286.9h14.2v95.9h16.7V397H56.9V286.9z"/>
		<path fill="#FFFFFF" d="M125.3,375.5h-15.7l-2.2,21.5H93.2l11.6-110.1H130L141.4,397h-13.8L125.3,375.5z M111.2,361.3h12.6
			l-6.3-60.2L111.2,361.3z"/>
		<path fill="#FFFFFF" d="M150.2,286.9h29.1c5.3,0,9.4,4.4,9.4,9.4v35.4c0,3.9-2,6.9-4.9,7.7c4.2,0.9,6.6,5.3,6.6,9.3
			c0,3.9,0,35.7,0,39c0,5-4.2,9.3-9.4,9.3h-30.8V286.9z M164.3,333.2h10.2v-32.1h-10.2V333.2z M176.3,382.8v-35.5h-11.9v35.5H176.3z
			"/>
		<path fill="#FFFFFF" d="M230.7,375.5h-15.7l-2.2,21.5h-14.2l11.6-110.1h25.2L246.7,397h-13.8L230.7,375.5z M216.5,361.3h12.6
			l-6.3-60.2L216.5,361.3z"/>
		<path fill="#FFFFFF" d="M303.9,397v-59.4l-11.6,35.9h-11.5l-10.7-35.9V397h-14.6V286.9h14.2l16.8,55l17.5-55h14.2V397H303.9z"/>
		<path fill="#FFFFFF" d="M359,375.5h-15.7L341,397h-14.2l11.6-110.1h25.2L375,397h-13.8L359,375.5z M344.8,361.3h12.6l-6.3-60.2
			L344.8,361.3z"/>
	</g>
	<path id="globe_1_" fill="#FFFFFF" d="M194.5,14.2c-6-7.3-13.7-13.7-13.1-13.8c17.2-0.9,52.7,7.8,60.1,16.9c0,0-21.7-3.7-45.2-2.2
		l-1,0L194.5,14.2z M195.2,15.1l0,0.4l1,0h0h0c3.8-0.2,7.6-0.3,11.3-0.3c9.3,0,17.8,0.6,23.9,1.3c3.1,0.3,5.5,0.6,7.3,0.9
		c1.7,0.2,2.7,0.4,2.7,0.4l1,0.2l-0.6-0.8c-1.8-2.3-5.2-4.4-9.6-6.4C219.2,4.7,197.4,0,183.9,0c-0.9,0-1.7,0-2.5,0.1l-0.3,0.1
		L181,0.5c0,0.1,0,0.2,0.1,0.2c0.1,0.2,0.3,0.3,0.5,0.6c1.7,1.8,7.8,7.2,12.7,13.1l0.3-0.2l-0.3,0.2l0.7,0.9l0.1,0.2l0.2,0
		L195.2,15.1l0.3-0.2l-0.7-0.9l0,0l0,0c-2.9-3.6-6.2-6.9-8.8-9.4c-1.3-1.3-2.4-2.3-3.2-3c-0.4-0.4-0.7-0.7-0.9-0.9l-0.2-0.2l0,0
		l-0.2,0.1h0.3l0-0.1l-0.2,0.1h0.3h-0.4l0.2,0.3l0.1-0.3h-0.4l0.2,0.3l-0.2-0.3l0,0.4l0.2-0.1l-0.2-0.3l0,0.4c0.8,0,1.6-0.1,2.5-0.1
		c8.9,0,21.5,2.1,32.8,5.2c5.6,1.6,10.9,3.4,15.2,5.4c4.3,2,7.6,4.1,9.3,6.2l0.3-0.2l0.1-0.4c0,0-15.2-2.6-34-2.6
		c-3.7,0-7.5,0.1-11.4,0.3l0,0.4l0-0.4l-1,0L195.2,15.1l0.3-0.2L195.2,15.1z M170,1.8c-0.5-0.3,0,0-0.5-0.3
		c-0.2-0.1-0.5-0.2-0.9-0.2c-23,1.9-38.4,9.5-39.1,9.8c-0.6,0.3-0.8,0.4-0.9,0.5c-0.1,0.1-0.1,0.1,0,0.5c0.5,1.8,5.2,16.6,5.4,17
		c0.2,0.4,0.1,0.4,0.3,0.5c0.2,0.2,0.6,0,0.9-0.1c0.6-0.3,20.8-10.3,49.1-13.2c0.9-0.1,0.6,0,0.8-0.1c0.1-0.1-0.2-0.4-0.5-0.7
		C182.4,13.1,172.3,3.3,170,1.8z M170,1.8l0.2-0.3L170,1.4l-0.1,0c0,0,0,0-0.2,0l-0.3,0.1l-0.1,0.1l0.2,0.1l-0.2-0.1v0l0.2,0.1
		l-0.2-0.1l0.3,0.2l-0.2-0.3l-0.1,0.1l0.3,0.2l-0.2-0.3l0.2,0.3V1.3l-0.2,0.1l0.2,0.3V1.3v0.3l0.1-0.3l-0.1,0v0.3l0.1-0.3l0,0.1
		l0-0.1l0,0l0,0.1l0-0.1c0,0-0.1,0-0.2-0.1c-0.2-0.1-0.6-0.3-1-0.3l-0.1,0c-23.1,1.9-38.5,9.5-39.2,9.9c-0.6,0.3-0.8,0.4-1.1,0.7
		l-0.1,0.1l-0.1,0.3c0,0.2,0.1,0.3,0.1,0.5c0.3,0.9,1.6,5,2.8,9c0.6,2,1.2,3.9,1.7,5.4c0.2,0.7,0.4,1.4,0.6,1.8
		c0.1,0.2,0.1,0.4,0.2,0.5c0,0.1,0.1,0.2,0.1,0.3c0.1,0.2,0.1,0.3,0.2,0.4l0.3,0.3c0.1,0.1,0.3,0.1,0.4,0.1c0.3,0,0.6-0.2,0.8-0.2
		c0.1,0,0.5-0.2,1.1-0.5c4.6-2.1,23.1-10.1,47.9-12.6c0.4,0,0.6,0,0.7-0.1l0.2-0.1l0.1,0c0.1-0.1,0.2-0.3,0.2-0.4
		c0-0.2-0.1-0.2-0.1-0.3c-0.1-0.2-0.3-0.4-0.5-0.6c-1.2-1.2-4.3-4.3-7.4-7.3c-1.6-1.5-3.1-2.9-4.4-4.1c-1.3-1.2-2.4-2.1-3-2.5
		L170,1.8l-0.2,0.3c0.5,0.3,1.6,1.2,2.9,2.4c3.9,3.5,10,9.5,11.7,11.3l0.3,0.3l0.1,0.1l0,0l0.2-0.1h-0.2l0,0.1l0.2-0.1h-0.2h0.3
		l-0.2-0.3l-0.2,0.3h0.3l-0.2-0.3l-0.1,0.1l0,0l0.1,0.2l-0.1-0.2l-0.1,0l0.1,0.2l-0.1-0.2l0,0.1l0-0.1l0,0l0,0.1l0-0.1
		c0,0-0.2,0-0.6,0.1c-14.2,1.4-26.3,4.6-35,7.5c-4.3,1.5-7.8,2.8-10.2,3.9c-1.2,0.5-2.2,0.9-2.8,1.3c-0.7,0.3-1.1,0.5-1.1,0.5
		c-0.2,0.1-0.5,0.2-0.5,0.2l0,0l0,0l-0.1,0.1l0.1-0.1l0,0l-0.1,0.1l0.1-0.1l-0.1,0.1l0.1,0l0,0l-0.1,0.1l0.1,0c0,0,0-0.1-0.2-0.4
		l0,0c-0.2-0.4-1.4-4.2-2.6-8.1c-1.2-3.9-2.5-8-2.7-8.8l-0.1-0.2l0,0l-0.1,0h0.1l0,0l-0.1,0h0.1h-0.3l0.2,0.1l0-0.1h-0.3l0.2,0.1
		l-0.1,0l0.1,0l0,0l-0.1,0l0.1,0l0-0.1l0.1-0.1c0.1-0.1,0.3-0.2,0.6-0.3c0.7-0.3,16-7.9,39-9.8l0.1,0c0.2,0,0.5,0.1,0.6,0.1l0.2,0.1
		l0.1,0l0.2,0L170,2l0.1-0.1l0,0l-0.3-0.2l0.3,0.2l0,0l-0.3-0.2l0.3,0.2l-0.3-0.2L170,2l0.1-0.1l-0.3-0.2L170,2l-0.2-0.3v0.4L170,2
		l-0.2-0.3v0.4V1.7L169.6,2c0,0,0,0,0.2,0V1.7L169.6,2l0,0l0.2,0.1L170,1.8z M120.5,15c-0.5,0.3-23.8,12.3-38,29.2
		c-0.1,0.2-0.2,0.2-0.2,0.5c0,0.1,0-0.2,0,0.4c0.1,0.5,3.5,16.2,3.6,16.8c0.1,0.6,0.2,0.9,0.4,1.2c0.1,0.1,0.3-0.1,0.6-0.4
		c18.4-18.6,38.9-28.9,39.6-29.4c0.4-0.2,0.5-0.3,0.5-0.4c0-0.2-0.1-0.2-0.1-0.4c-0.4-1.1-5-15.9-5.6-17.3c-0.2-0.5-0.1-0.3-0.2-0.3
		C120.9,14.8,120.8,14.9,120.5,15z M121,14.9l-0.2,0.3c0,0,0.1,0.1,0.3,0.1c0.2,0,0.3-0.2,0.3-0.2l0,0L121,14.9l0.4,0.2l0,0
		L121,14.9l0.4,0.2L121,14.9l0.3,0.3l0.1-0.1L121,14.9l0.3,0.3L121,14.9l0,0.4l0.2-0.1L121,14.9l0,0.4L121,14.9l-0.2,0.3l0.2,0.1
		L121,14.9l-0.2,0.3L121,14.9l-0.3,0.2l0.1,0.1L121,14.9l-0.3,0.2L121,14.9l-0.3,0.2l0,0L121,14.9l-0.3,0.2c0,0,0,0.1,0.1,0.3
		c0.1,0.3,0.5,1.5,1,3.1c1.6,4.8,4.3,13.3,4.5,14.2l0.1,0.2l0,0.1h0.2l-0.2-0.2l0,0.2h0.2l-0.2-0.2l0,0c0,0-0.2,0.1-0.4,0.3
		c0,0-0.5,0.3-1.1,0.6c-4.7,2.6-22.4,12.5-38.6,28.8l-0.3,0.3l-0.1,0l0.1,0.2v-0.2l-0.1,0l0.1,0.2v-0.2v0.3l0.3-0.1l-0.3-0.2v0.3
		l0.3-0.1c-0.1-0.2-0.2-0.5-0.3-1.1c-0.1-0.3-1-4.4-1.8-8.5c-0.4-2-0.9-4.1-1.2-5.6c-0.2-0.8-0.3-1.4-0.4-1.9
		c-0.1-0.5-0.2-0.8-0.2-0.8c0-0.2,0-0.3,0-0.3l0-0.1l0,0l-0.3,0h0.3l0,0l-0.3,0h0.3h-0.4l0.4,0l0,0h-0.4l0.4,0l-0.4,0l0.3,0.2l0-0.1
		l-0.4,0l0.3,0.2l-0.4-0.2l0.2,0.3l0.1-0.1l-0.4-0.2l0.2,0.3l-0.2,0.1v-0.4L81.9,45c0,0,0,0.1,0.3,0.1v-0.4L81.9,45l0.3-0.3
		l-0.3,0.2l0,0l0.3-0.3l-0.3,0.2l0,0.1c0,0,0.1,0.1,0.3,0.1c0.1,0,0.3-0.1,0.3-0.1l0.1-0.2l0-0.1l0-0.1l0,0l0,0l0.1-0.1
		c7.1-8.4,16.4-15.6,24.1-20.8c3.8-2.6,7.2-4.6,9.7-6c1.2-0.7,2.2-1.3,2.9-1.7c0.7-0.4,1.1-0.6,1.2-0.6l0.2-0.1l0,0l0-0.1v0.2l0,0
		l0-0.1v0.2v-0.2l-0.1,0.2l0.1,0v-0.2l-0.1,0.2l0,0l0,0l0,0l0,0l0,0l0,0L121,14.9l0.2-0.3c-0.1-0.1-0.2-0.1-0.4-0.1
		c-0.3,0-0.4,0.1-0.6,0.2c0,0-0.5,0.2-1.2,0.6c-5,2.7-24.5,13.8-37,28.6L82,44.2c-0.1,0.1-0.1,0.3-0.1,0.4l0.3,0l-0.3-0.1l0,0.1
		l0.3,0l-0.3-0.1l0.4,0.1l-0.3-0.2l-0.1,0.1l0.4,0.1l-0.3-0.2l0.3,0.2v-0.4c-0.1,0-0.3,0.1-0.3,0.1l0.3,0.2v-0.4v0.4l0.3-0.3
		c0,0-0.1-0.1-0.3-0.1v0.4l0.3-0.3l-0.2,0.3l0.3-0.2l-0.1-0.1l-0.2,0.3l0.3-0.2l0,0l0-0.1c0,0-0.1-0.1-0.3-0.1L82,44.4l-0.1,0.2
		l0,0.1l0,0.1c0,0,0,0.1,0,0.4c0,0.1,0.1,0.4,0.2,0.9c0.7,3.4,3.3,15.4,3.4,16c0.1,0.6,0.2,1,0.4,1.3c0,0.1,0.2,0.3,0.4,0.3
		c0.3,0,0.3-0.1,0.5-0.2l0.3-0.3c9.2-9.3,18.9-16.5,26.4-21.4c3.7-2.5,6.9-4.4,9.2-5.7c1.2-0.7,2.1-1.2,2.7-1.5
		c0.7-0.4,1.1-0.6,1.2-0.7c0.2-0.1,0.3-0.2,0.4-0.3l0.2-0.2l0.1-0.3l-0.1-0.3l-0.1-0.2c-0.2-0.5-1.4-4.5-2.7-8.5
		c-0.6-2-1.3-4-1.8-5.6c-0.5-1.6-0.9-2.8-1.1-3.1c-0.1-0.1-0.1-0.2-0.1-0.3l0-0.1l0-0.1l-0.1-0.1l-0.2-0.1l-0.3,0.1l-0.1,0.1
		L121,14.9l-0.2-0.3l-0.1,0.1L121,14.9l-0.2-0.3L121,14.9l0-0.4l-0.3,0.1L121,14.9l0-0.4L121,14.9l0.2-0.3l-0.2-0.1L121,14.9
		l0.2-0.3L121,14.9z M75.2,53.6C56.6,79.1,54.1,102,54,102.7c-0.1,0.8-0.1,1.5,0.1,1.6c0.2,0,0.6,0.1,0.9-0.4
		C63,88.6,76.8,72.4,79,70.2c0.4-0.4-0.2,0.2,0.3-0.5c0.1-0.2,0.1-0.5,0-0.7c-0.2-0.8-3.1-13.7-3.5-15.2c-0.1-0.3-0.1-0.6-0.2-0.6
		C75.6,53.2,75.3,53.3,75.2,53.6z M75.6,53.2v0.4v-0.3l-0.2,0.2l0.2,0.1v-0.3l-0.2,0.2l0.1-0.1l-0.2,0.1l0,0l0.1-0.1l-0.2,0.1l0,0
		l0,0l0,0l0,0l0,0c0,0,0,0.2,0.1,0.4c0.4,1.5,3.3,14.4,3.5,15.2l0,0.3l0,0.1l0,0l-0.2,0.3l-0.1,0.1l0,0.2l0.1,0.3l0.3,0.1
		c0.1,0,0.2,0,0.2-0.1l0.1-0.1l0,0l0,0l0,0l0,0l0,0l0,0l0-0.2l-0.1-0.3l-0.3-0.1l-0.3,0.1L78.8,70l0.1,0.3l-0.1-0.1l0-0.2l0.1-0.3
		l0.2-0.1l0.1,0c-0.1,0-0.2,0-0.2,0l-0.1,0l-0.1,0.1l-0.1,0.1c-1.1,1.1-5.1,5.7-9.9,12c-4.7,6.3-10.2,14.2-14.3,21.8
		c-0.1,0.2-0.2,0.2-0.3,0.2l-0.1,0l0,0.3l0.2-0.2l-0.2-0.1l0,0.3l0.2-0.2l-0.1,0.1l0.1-0.1l0,0l-0.1,0.1l0.1-0.1l0,0l0,0l0,0l0,0
		l0,0c0,0,0-0.2,0-0.3c0-0.2,0-0.6,0.1-1c0.1-0.6,2.6-23.5,21.1-49l0.2-0.2l0.1,0l-0.1-0.2v0.2l0.1,0l-0.1-0.2v0.2V53.2v-0.4
		l-0.2,0.1c-0.2,0.1-0.4,0.2-0.5,0.5C56.3,79,53.7,101.9,53.6,102.7c0,0.4-0.1,0.7-0.1,1c0,0.2,0,0.3,0,0.5l0.1,0.2
		c0.1,0.1,0.2,0.2,0.3,0.2l0.2,0c0.3,0,0.8-0.1,1-0.6c4-7.6,9.5-15.5,14.2-21.7c4.7-6.2,8.7-10.8,9.8-11.9l0.1-0.1l0,0l0,0l0,0l0,0
		l0,0l0,0l-0.2-0.2l0.2,0.3l0,0l-0.2-0.2l0.2,0.3L79.2,70l0.2,0.3l0,0L79.2,70l0.2,0.3L79.2,70l0.2,0.3l0,0L79.2,70l0.2,0.3l0,0
		L79.2,70v0.4c0.2,0,0.2,0,0.2,0L79.2,70v0.4h0l0.1,0l0.1-0.1l0.2-0.3c0-0.2-0.1-0.3-0.1-0.3l0,0l0.1,0.1l0.1,0.2l-0.1-0.3l-0.3-0.1
		l-0.3,0.1L78.8,70c0-0.1,0-0.2,0-0.2l0.3,0.2l-0.3-0.3l-0.1,0.1l0.3,0.2l-0.3-0.3l0.2,0.2l-0.2-0.2l0,0l0.2,0.2l-0.2-0.2l0.1,0.1
		l-0.1-0.1l0,0l0.1,0.1l-0.1-0.1l0.2,0.3L79,69.7l0,0l0.2,0.3L79,69.7l0.2,0.3v-0.4l-0.2,0l0.2,0.3v-0.4v0.4l0.3-0.2l-0.3-0.1v0.4
		l0.3-0.2l-0.3,0.2h0.4l-0.1-0.2l-0.3,0.2h0.4h-0.3l0.3,0.1l0-0.1h-0.3l0.3,0.1l0,0l0.2-0.2c0.1-0.2,0.2-0.4,0.2-0.6
		c0-0.2,0-0.3-0.1-0.5c-0.2-0.8-3.1-13.7-3.5-15.2c0-0.1-0.1-0.3-0.1-0.4L76,53c-0.1-0.1-0.2-0.2-0.4-0.2V53.2z M202,22.8
		c-0.6,0-1,0.1-1.1,0.2c-0.1,0.2,0,0.3,0.5,1c7.2,12,13.9,29.4,14.2,30.1c0.2,0.3,0.2,0.3,0.3,0.5c0.1,0.1,0,0.1,0.8,0
		c1.9-0.1,26.8-1.9,51.4,5.8c1.8,0.5,1.9,0.8,2.1,0.6c0.2-0.2,0-1-0.4-1.9c-9.7-22.8-18.3-31-19.3-32.1c-0.1-0.1-0.4-0.3-0.6-0.4
		C246.7,24.4,213.2,22,202,22.8z M250.1,26.7l-0.2,0.3c0.2,0.1,0.4,0.3,0.5,0.4c0.5,0.6,2.9,2.9,6.4,7.9c3.5,5,8,12.7,12.9,24.1
		c0.3,0.7,0.4,1.3,0.4,1.5l0,0.1l0.1,0l-0.1-0.1l0,0.1l0.1,0l-0.1-0.1l0,0l0.1,0.1v-0.2l-0.1,0l0.1,0.1v-0.2v0l0,0h0v0l0,0
		c0,0-0.2-0.1-0.5-0.2c-0.3-0.1-0.7-0.3-1.4-0.5c-16.6-5.2-33.4-6.1-43.1-6.1c-4.7,0-7.8,0.2-8.4,0.2c-0.4,0-0.6,0-0.7,0h0l0,0.2
		l0-0.2l0,0l0,0.2l0-0.2l-0.1,0.3l0.2-0.2l-0.1-0.1l-0.1,0.3l0.2-0.2l-0.1,0.1l0.1-0.1l0,0l-0.1,0.1l0.1-0.1l0,0l-0.2-0.2
		c0,0-0.1-0.1-0.1-0.3c0-0.1-0.2-0.4-0.4-1c-1.6-4-7.5-18.6-13.8-29.2c-0.2-0.3-0.3-0.5-0.4-0.6l-0.1-0.1l0,0l-0.1,0h0.1v0l-0.1,0
		h0.1h-0.1l0.1,0v0h-0.1l0.1,0l0,0l-0.3-0.1l0.2,0.2l0.1-0.1l-0.3-0.1l0.2,0.2l-0.1-0.1l0.1,0.1l0,0l-0.1-0.1l0.1,0.1
		c0,0,0.1,0,0.3,0c0.2,0,0.4,0,0.6,0c1.5-0.1,3.5-0.2,5.8-0.2c7,0,16.9,0.5,25.3,1.3c4.2,0.4,8.1,0.8,11.1,1.3
		c1.5,0.2,2.8,0.5,3.7,0.7c1,0.2,1.7,0.5,2,0.7L250.1,26.7l0.2-0.3c-0.5-0.3-1.2-0.5-2.2-0.8c-7.1-1.7-27.9-3.3-40.3-3.3
		c-2.3,0-4.3,0.1-5.8,0.2c-0.3,0-0.6,0-0.8,0.1l-0.3,0.1c-0.1,0-0.2,0.1-0.3,0.3l0,0.2c0,0.2,0.1,0.3,0.2,0.5
		c0.1,0.2,0.2,0.3,0.4,0.6c3.6,6,7.1,13.3,9.7,19.3c1.3,3,2.4,5.6,3.2,7.5c0.4,1,0.7,1.7,0.9,2.3c0.2,0.6,0.4,0.9,0.4,1
		c0.1,0.2,0.1,0.3,0.2,0.4l0.2,0.2l0.2,0.2l0.3,0.1c0.1,0,0.3,0,0.7,0c0.6,0,3.7-0.2,8.4-0.2c9.7,0,26.4,0.9,42.9,6.1
		c0.7,0.2,1.1,0.4,1.4,0.5c0.3,0.1,0.4,0.2,0.7,0.2c0.2,0,0.4-0.1,0.5-0.2c0.2-0.2,0.2-0.4,0.2-0.6c0-0.5-0.2-1.1-0.5-1.8
		c-4.9-11.4-9.4-19.2-12.9-24.2c-3.5-5.1-5.9-7.4-6.5-8c-0.2-0.2-0.4-0.3-0.6-0.5L250.1,26.7z M279.3,61.9c0.7,1.8,0.7,2,1,2.9
		c0.1,0.3,0.6,0.4,1.9,1.1c5.7,3.4,14.7,9.5,17.6,11.8c1.5,1.2,2.4,1.9,2.3,1.6c-0.1-0.4-0.7-3.4-1.4-4.7
		c-4.4-8.5-13.6-31.6-38.3-46.3C257.1,25.2,268.3,32.9,279.3,61.9z M262.5,28.4l-0.2,0.3c24.6,14.6,33.7,37.5,38.2,46.1
		c0.6,1.2,1.3,4.2,1.4,4.6l0.2,0h-0.2v0l0.2,0h-0.2h0.3l-0.2-0.2l-0.1,0.2h0.3l-0.2-0.2l0.2,0.2V79l-0.2,0.1l0.2,0.2V79v0.2l0.1-0.2
		l-0.1,0v0.2l0.1-0.2l0,0c-0.1,0-0.4-0.2-0.7-0.5c-0.4-0.3-0.8-0.6-1.4-1.1c-2.9-2.3-11.9-8.5-17.7-11.9c-0.6-0.4-1.1-0.6-1.4-0.7
		c-0.1-0.1-0.2-0.1-0.3-0.2l0,0l-0.1,0l0.1,0l0,0l-0.1,0l0.1,0c-0.4-1-0.4-1.1-1-2.9c-4.5-12-9.1-20.3-12.5-25.8
		c-1.7-2.7-3.2-4.7-4.2-6.1c-0.5-0.7-0.9-1.2-1.2-1.6c-0.1-0.2-0.2-0.3-0.3-0.4l-0.1-0.1l0,0l-0.2,0.1h0.2l0-0.1l-0.2,0.1h0.2h-0.3
		l0.2,0.2l0.1-0.2h-0.3l0.2,0.2l-0.2-0.2l0,0.3l0.2-0.1l-0.2-0.2l0,0.3V28l0,0.1l0,0V28l0,0.1c0.1,0,0.5,0.2,1.1,0.6L262.5,28.4
		l0.2-0.3c-0.4-0.2-0.7-0.4-0.9-0.5l-0.3-0.1l-0.3-0.1l-0.3,0.1l-0.1,0.3c0,0.2,0.1,0.3,0.2,0.5c0.3,0.5,1,1.4,2.1,2.9
		c3.2,4.5,9.6,14.1,16,30.9c0.7,1.8,0.7,1.9,1,2.9c0.1,0.2,0.2,0.3,0.3,0.4c0.3,0.2,0.8,0.4,1.7,1c5.7,3.3,14.7,9.5,17.6,11.8
		c0.6,0.5,1.1,0.9,1.5,1.2c0.2,0.1,0.4,0.3,0.5,0.4c0.2,0.1,0.2,0.2,0.5,0.2l0.3-0.1l0.1-0.3l0-0.1c-0.1-0.5-0.7-3.4-1.5-4.8
		c-4.4-8.5-13.6-31.7-38.5-46.4L262.5,28.4z M190.2,23.8c-16,2.1-33.3,4.8-51.2,13.1c-1,0.4-1.3,0.5-1.3,0.8
		c-0.1,0.3,0.2,0.5,0.4,1.2c0.2,0.6,12,30.4,12.4,31.3c0.3,0.9,0.5,1.1,0.6,1.3c0.1,0.1,0.1,0.1,0.9-0.2c0.8-0.3,21.1-10.1,53-15
		c1.4-0.2,1.9-0.3,2.3-0.5c0.2-0.1,0.1-0.6-0.2-1.3c-7.1-18.9-14.4-28.8-15-29.6c-0.4-0.6-0.7-0.8-0.9-1
		C191.3,23.9,190.9,23.7,190.2,23.8z M191.3,23.9l-0.2,0.3c0.1,0,0.3,0.3,0.8,0.8c0.6,0.8,7.9,10.7,14.9,29.5
		c0.2,0.5,0.3,0.8,0.3,0.9v0l0.2,0l-0.1-0.1l-0.1,0.1l0.2,0l-0.1-0.1c-0.3,0.2-0.9,0.3-2.2,0.5c-16,2.5-29,6.2-38.2,9.3
		c-9.2,3.1-14.5,5.6-14.9,5.8c-0.2,0.1-0.4,0.2-0.5,0.2l-0.1,0l0,0l0,0.1v-0.1l0,0l0,0.1v-0.1v0.2l0.1-0.2l-0.1,0v0.2l0.1-0.2
		l-0.1,0.1l0.1-0.1l0,0l-0.1,0.1l0.1-0.1l0,0c0,0-0.1,0-0.1-0.2c-0.1-0.2-0.2-0.4-0.4-0.9c-0.2-0.5-3.2-8.2-6.3-15.8
		c-1.5-3.8-3-7.6-4.2-10.5c-0.6-1.4-1.1-2.7-1.4-3.5c-0.3-0.9-0.6-1.4-0.6-1.5c-0.1-0.4-0.2-0.6-0.3-0.8l-0.1-0.2l0,0l0,0H138l0.1,0
		l0,0H138l0.1,0l-0.1,0l0.1,0l0,0l-0.1,0l0.1,0l0,0l0,0l0,0l0,0l0,0c0,0,0.4-0.2,1.1-0.5c17.9-8.3,35.1-10.9,51.1-13
		c0.1,0,0.3,0,0.4,0c0.2,0,0.3,0,0.4,0l0.1,0l0,0l0,0l0,0l0,0l0,0l0,0L191.3,23.9l-0.2,0.3L191.3,23.9l0.1-0.4c0,0-0.3-0.1-0.7-0.1
		c-0.1,0-0.3,0-0.5,0c-16,2.1-33.4,4.8-51.4,13.1c-0.5,0.2-0.8,0.3-1,0.5l-0.3,0.2l-0.2,0.4l0,0.1c0,0.3,0.1,0.4,0.2,0.6
		c0.1,0.2,0.2,0.4,0.3,0.7c0,0.1,0.2,0.6,0.6,1.5c2.4,6.1,11.5,29,11.8,29.8c0.2,0.5,0.3,0.7,0.4,1c0.1,0.2,0.2,0.4,0.4,0.5l0.1,0.1
		l0.2,0.1c0.3,0,0.4-0.1,0.9-0.3c0.4-0.2,5.7-2.7,14.8-5.8c9.1-3.1,22.2-6.8,38.1-9.2c1.4-0.2,2-0.3,2.4-0.6l0.3-0.3l0.1-0.3
		c0-0.4-0.2-0.7-0.3-1.2c-7.1-18.9-14.4-28.9-15.1-29.7c-0.4-0.6-0.7-0.9-1-1.1l0,0l0,0L191.3,23.9z M129.6,41.4
		c-0.2,0-0.6,0.2-1.6,0.7C106.4,53.9,90.4,71,89.7,71.6c-0.7,0.5-1,0.9-0.9,1.1c0,0.2,0.1,0.4,0.3,1c0.7,2.2,6.6,19.2,11.4,29.9
		c0.2,0.5,0.5,1,0.6,1c0.2,0,0.5-0.3,1-0.7c1.2-1.1,20.4-18.3,39.9-28.1c1.1-0.6,1-0.6,1.2-0.9c0.2-0.5,0.1-0.6-0.3-1.5
		c-0.5-1-12.4-30.4-12.7-31C129.8,41.5,129.6,41.4,129.6,41.4z M129.6,41.4l0.1-0.4l-0.1,0c-0.3,0-0.4,0.1-0.7,0.2
		c-0.3,0.1-0.6,0.3-1,0.6c-10.8,5.9-20.2,13.2-27,19c-3.4,2.9-6.2,5.5-8.1,7.3c-1,0.9-1.7,1.7-2.3,2.2c-0.3,0.3-0.5,0.5-0.6,0.6
		c-0.2,0.2-0.3,0.3-0.3,0.3c-0.3,0.3-0.6,0.5-0.8,0.7c-0.2,0.2-0.3,0.4-0.3,0.7l0,0.1v0l0,0c0,0.3,0.1,0.5,0.3,1
		c0.7,2.2,6.6,19.2,11.4,30c0.1,0.2,0.2,0.5,0.4,0.7l0.2,0.3c0.1,0.1,0.1,0.2,0.3,0.2l0.1,0c0.3,0,0.4-0.2,0.6-0.3
		c0.2-0.1,0.3-0.3,0.6-0.5c1.2-1.1,20.4-18.3,39.8-28c0.6-0.3,0.8-0.4,1-0.6l0.2-0.3l0.1-0.2c0.1-0.2,0.1-0.4,0.1-0.6
		c0-0.4-0.2-0.6-0.4-1.2c-0.1-0.2-1-2.3-2.1-5.2c-3.6-8.7-10.3-25.4-10.5-25.8c-0.4-0.9-0.6-1.1-0.7-1.2l-0.1,0l-0.1,0L129.6,41.4
		l-0.2,0.3l0.1-0.2l-0.2,0.2l0,0l0.1-0.2l-0.2,0.2l0,0c0,0,0.2,0.2,0.4,0.8c0.1,0.3,3.2,7.8,6.3,15.4c1.5,3.8,3.1,7.6,4.3,10.5
		c1.2,2.9,2,4.9,2.2,5.2c0.3,0.6,0.4,0.8,0.4,0.9c0,0,0,0.1-0.1,0.3l-0.1,0.2l-0.1,0.1c-0.1,0.1-0.4,0.2-0.8,0.4
		c-19.5,9.9-38.7,27-40,28.2c-0.2,0.2-0.4,0.4-0.6,0.5l-0.1,0.1l0,0l0,0.1v-0.2l0,0l0,0.1v-0.2v0.2l0.1-0.2l-0.1,0v0.2l0.1-0.2
		l-0.1,0.2l0.1-0.2l-0.1,0l-0.1,0.2l0.1-0.2l0,0c-0.1-0.1-0.3-0.5-0.4-0.9C96,92.7,90.1,75.8,89.4,73.5c-0.2-0.6-0.3-0.8-0.3-0.9
		l0,0l0,0l-0.2,0h0.2l0,0l-0.2,0h0.2H89l0.1,0l0,0H89l0.1,0c0,0,0.3-0.4,0.8-0.8c0.1-0.1,0.2-0.2,0.3-0.3
		c2.4-2.4,17.8-18.1,37.9-29.1c0.5-0.3,0.8-0.4,1-0.6l0.3-0.1l0.1,0v-0.1l0,0.1l0,0v-0.1l0,0.1L129.6,41.4l-0.2,0.3L129.6,41.4z
		 M82.3,79.9c-0.2-0.1-0.3-0.1-1.2,1c-9.5,10.8-23.4,31.9-23.9,33c-0.2,0.5-0.2,0.4-0.3,0.7c0,0.2,0.1,0.5,0.1,1.2
		c0.1,0.9,3.2,15.5,11.7,31.4c0.4,0.7,0.5,1.3,0.7,1.3c0.2,0,0.4-0.8,0.7-1.3c0.6-1.1,12.4-23.4,23.9-34.9c0.6-0.6,0.7-0.7,0.7-1.1
		c0-0.3-0.3-0.9-0.6-1.6C88,96.1,83.2,81.9,82.9,81.2C82.6,80.4,82.4,79.9,82.3,79.9z M82.3,79.9l0.1-0.4l-0.3,0l-0.3,0.1
		c-0.3,0.2-0.5,0.4-1,1C76,86,70.2,94,65.5,100.8c-2.4,3.4-4.4,6.5-5.9,8.8c-0.8,1.2-1.4,2.1-1.8,2.8c-0.4,0.7-0.7,1.1-0.8,1.4
		c-0.1,0.3-0.2,0.3-0.2,0.4c-0.1,0.1-0.1,0.2-0.1,0.4l0,0.2c0,0.3,0.1,0.6,0.2,1.1c0,0.3,0.2,1.3,0.7,3.1c1.3,5.3,4.6,16.5,11,28.5
		c0.2,0.3,0.3,0.7,0.4,0.9l0.2,0.4c0.1,0.1,0.2,0.3,0.5,0.3c0.2,0,0.3-0.1,0.3-0.1l0.2-0.3c0.2-0.3,0.3-0.7,0.5-1.1
		c0.6-1.1,12.4-23.4,23.9-34.8c0.3-0.3,0.5-0.5,0.6-0.7c0.1-0.2,0.2-0.4,0.2-0.6v0c0-0.3-0.1-0.5-0.2-0.8c-0.1-0.3-0.3-0.6-0.4-1
		c-6.3-13.6-11.1-27.7-11.4-28.5c-0.1-0.4-0.3-0.7-0.4-0.9l-0.2-0.3l-0.1-0.1l-0.2-0.1L82.3,79.9l-0.1,0.4l0.1-0.3L82,80.2l0.1,0.1
		l0.1-0.3L82,80.2h0c0,0,0.1,0.2,0.2,0.4c0.1,0.2,0.2,0.5,0.3,0.8c0.3,0.7,5.1,14.9,11.4,28.5c0.2,0.3,0.3,0.7,0.4,0.9
		c0.1,0.3,0.1,0.5,0.1,0.5v0c0,0.1,0,0.1,0,0.2c-0.1,0.1-0.2,0.3-0.5,0.6c-11.6,11.6-23.4,33.9-24,35c-0.2,0.3-0.3,0.6-0.4,0.9
		l-0.1,0.3l0,0l0.1,0.1l-0.1-0.1l0,0l0.1,0.1l-0.1-0.1l0.2,0.2v-0.3l-0.2,0.1l0.2,0.2v-0.3v0.2l0.1-0.2l-0.1,0v0.2l0.1-0.2l-0.1,0.1
		l0.1-0.1l0,0l-0.1,0.1l0.1-0.1h0h0l0,0h0h0c0,0-0.1-0.2-0.2-0.4c-0.1-0.2-0.2-0.5-0.4-0.8c-4.2-7.9-7.1-15.5-9-21.3
		c-0.9-2.9-1.6-5.3-2-7c-0.4-1.7-0.6-2.8-0.7-3c-0.1-0.6-0.2-0.9-0.1-1l0,0c0-0.2,0-0.2,0-0.2c0,0,0.1-0.2,0.2-0.4
		c0-0.1,0.3-0.6,0.7-1.2c3.1-4.9,14.7-22.2,23-31.6c0.4-0.4,0.6-0.6,0.7-0.8l0.1-0.1l0-0.1l0,0.1l0,0l0-0.1l0,0.1l-0.1-0.2v0.2
		l0.1,0l-0.1-0.2v0.2v-0.1l0,0.1l0,0v-0.1l0,0.1l0,0L82.3,79.9z M48.7,151c0.4,2.4,1.1,2.1,1.1,2.1s13.5,0.5,13.2-0.3
		c-1-2.2-7.1-11.9-10.5-25.3c-0.4-1.4-1.7-5.9-2-7c0,0-0.3,0.5-0.7,2.5C49.9,123,47.5,144.1,48.7,151z M49.9,123l0.4,0.1
		c0.2-1,0.4-1.6,0.5-1.9c0.1-0.2,0.1-0.3,0.1-0.3l0-0.1h0l-0.3-0.2l-0.4,0.1c0.3,1.2,1.6,5.6,2,7c1.7,6.7,4.1,12.5,6.1,16.9
		c2.1,4.4,3.9,7.4,4.3,8.4l0.3-0.1h-0.3l0,0.1l0.3-0.1h-0.3h0.3l-0.2-0.2l-0.1,0.2h0.3l-0.2-0.2l0.1,0.1l-0.1-0.2l0,0l0.1,0.1
		l-0.1-0.2l0,0l0,0h0l0,0l0,0c0,0-0.3,0.1-0.6,0.1c-0.9,0.1-2.6,0.2-4.5,0.2c-1.8,0-3.8,0-5.3-0.1c-1.5,0-2.6-0.1-2.6-0.1l-0.1,0
		l-0.1,0l0.1,0.2v-0.2l-0.1,0l0.1,0.2v-0.2v0.1l0-0.1l0,0v0.1l0-0.1l0,0c-0.1-0.1-0.4-0.5-0.6-1.8c-0.2-1.4-0.4-3.3-0.3-5.6
		c0-4.4,0.4-10,0.8-14.5c0.2-2.2,0.4-4.2,0.5-5.6c0.1-1.4,0.2-2.2,0.2-2.2L49.9,123l0.4,0.1L49.9,123l-0.4,0c0,0-1.6,13.4-1.6,22.4
		c0,2.3,0.1,4.3,0.4,5.7c0.2,1,0.4,1.6,0.6,1.9c0.2,0.4,0.5,0.5,0.8,0.5l0.2,0l-0.2-0.4l0,0.4c0,0,4.2,0.2,7.9,0.2
		c1.4,0,2.7,0,3.7-0.1c0.5,0,0.9-0.1,1.2-0.1c0.2,0,0.3-0.1,0.4-0.1l0.2-0.1c0.1-0.1,0.1-0.2,0.1-0.3l0-0.2
		c-0.5-1.2-2.3-4.1-4.3-8.5c-2.1-4.3-4.4-10.1-6.1-16.7c-0.4-1.5-1.7-5.9-1.9-7l-0.2-1l-0.5,0.9c0,0.1-0.3,0.6-0.7,2.6l0,0l0,0
		L49.9,123z M98.9,119.1c-0.1,0-0.1-0.1-0.9,0.7c-8.5,8.5-19.8,29.7-20.5,31c-0.7,1.3-1.4,2-0.9,2c0.5,0,42.4,0,42.6,0
		c0,0,0.4-1.4-0.2-1.6c-1.7-0.4-19.1-30.4-19.4-31.1C99.1,119.5,98.9,119.1,98.9,119.1z M98.9,119.1l0.2-0.3c0,0-0.1-0.1-0.2-0.1
		l-0.3,0.1c-0.2,0.1-0.4,0.3-0.8,0.8c-4.3,4.3-9.3,11.8-13.2,18.3c-4,6.5-7,12.2-7.3,12.8c-0.3,0.5-0.5,0.9-0.7,1.2
		c-0.1,0.2-0.2,0.3-0.3,0.4c-0.1,0.1-0.1,0.2-0.1,0.4c0,0.1,0.1,0.3,0.2,0.4l0.3,0.1c0.5,0,42.4,0,42.6,0h0.3l0.1-0.3
		c0,0,0.1-0.5,0.1-1c0-0.2,0-0.4-0.1-0.6c-0.1-0.2-0.3-0.4-0.5-0.5l0,0.1l0.1-0.1l0,0l0,0.1l0.1-0.1l0,0c-0.2-0.1-0.7-0.8-1.4-1.7
		c-2.4-3.3-6.7-10.4-10.5-16.8c-1.9-3.2-3.7-6.2-5-8.5c-0.7-1.1-1.2-2.1-1.6-2.7c-0.4-0.7-0.6-1.1-0.7-1.2c-0.4-0.8-0.6-1.1-0.6-1.2
		l-0.1-0.1l-0.1,0L98.9,119.1l-0.3,0.2c0,0,0,0.1,0.1,0.3c0.1,0.2,0.2,0.4,0.4,0.8c0.1,0.1,0.4,0.7,0.9,1.6
		c1.8,3.1,6.1,10.4,10.1,17c2,3.3,3.9,6.4,5.5,8.7c0.8,1.2,1.4,2.1,2,2.8c0.3,0.3,0.5,0.6,0.7,0.8c0.2,0.2,0.3,0.3,0.6,0.4l0,0l0,0
		l0,0l0,0l0,0l0,0.1l0,0.3c0,0.2,0,0.4-0.1,0.5c0,0.1-0.1,0.2-0.1,0.2l0.4,0.1v-0.4c-0.2,0-42.1,0-42.6,0l0,0l-0.1,0.2l0.2-0.2
		l-0.1-0.1l-0.1,0.2l0.2-0.2l-0.2,0.2h0.3l-0.1-0.2l-0.2,0.2h0.3h-0.2l0.2,0l0,0h-0.2l0.2,0l0,0c0.1-0.2,0.6-0.9,1-1.7
		c0.3-0.6,3.3-6.3,7.3-12.8c4-6.5,8.9-13.9,13.1-18.2c0.3-0.3,0.5-0.5,0.6-0.6l0.1-0.1l-0.1-0.2v0.2l0.1,0l-0.1-0.2v0.2L98.9,119.1
		l-0.2,0.3l0.1,0L98.9,119.1l-0.2,0.3l0,0L98.9,119.1l-0.3,0.2L98.9,119.1z M105.3,113.5c0,0,11.9,22,23.4,37.2c0.4,0.6,0.8,1,0.8,1
		l2,0c0,0,0.9-0.9,1.4-1.5s8.6-8.4,33.4-22.3c0.8-0.4,0.6-0.4,0.7-0.6c0,0-0.2-0.7-0.6-1.5c-0.3-0.7-19-42.2-19.3-42.7
		c-0.2-0.3-0.5-0.5-0.6-0.5c-0.2-0.1-0.5,0-0.9,0.2c-21.2,10.6-38.9,27.9-40,28.8c-0.3,0.3-0.8,0.7-0.8,0.8
		C104.9,112.9,105.3,113.5,105.3,113.5z M104.9,112.5l0.4,0l-0.2,0l0.2,0.1l0-0.1l-0.2,0l0.2,0.1l0.2-0.3l0.4-0.4
		c0.3-0.3,1.6-1.5,3.7-3.4c6.4-5.7,20.3-17.4,36.2-25.3c0.3-0.1,0.5-0.2,0.5-0.2l0,0c0.1,0,0.3,0.2,0.5,0.4l0,0l0,0l0,0l0,0l0,0
		c0.3,0.5,5,11,9.7,21.5c2.4,5.2,4.7,10.4,6.5,14.4c0.9,2,1.6,3.6,2.2,4.8c0.5,1.2,0.9,1.9,0.9,2c0.2,0.4,0.3,0.7,0.4,1
		c0.1,0.3,0.2,0.4,0.2,0.4l0.4-0.1l-0.3-0.3l-0.1,0.2l0,0l0,0l0,0l0,0l0,0l0,0c0,0-0.1,0.1-0.5,0.3c-24.8,13.9-33,21.8-33.5,22.4
		c-0.5,0.5-1.4,1.5-1.4,1.5l0.3,0.3l0-0.4l-2,0l0,0.4l0.3-0.2c0,0-0.4-0.5-0.8-1c-5.7-7.5-11.6-16.8-16-24.2
		c-2.2-3.7-4.1-6.9-5.4-9.2c-1.3-2.3-2-3.7-2-3.7l0,0l0,0l-0.1-0.1l-0.2-0.4l-0.1-0.3l0,0l0,0v0L104.9,112.5l-0.4,0l0,0.1
		c0,0.3,0.1,0.6,0.3,0.8c0.1,0.2,0.2,0.4,0.2,0.4l0.3-0.2l-0.3,0.2c0,0,11.9,22.1,23.5,37.2c0.4,0.6,0.8,1.1,0.8,1.1l0.1,0.1
		l2.4-0.1l0.1-0.1c0,0,0.9-0.9,1.4-1.4c0.5-0.5,8.6-8.4,33.3-22.2c0.4-0.2,0.6-0.3,0.7-0.5l0.1-0.2v0l0.2-0.2l-0.1-0.2
		c0,0-0.2-0.7-0.7-1.5c0-0.1-0.4-0.8-0.9-2c-1.9-4.2-6.4-14.3-10.5-23.3c-2-4.5-4-8.8-5.4-12c-0.7-1.6-1.3-2.9-1.7-3.8
		c-0.2-0.5-0.4-0.8-0.5-1.1l-0.1-0.3l-0.1-0.2c-0.3-0.5-0.7-0.6-0.8-0.7l-0.4-0.1c-0.3,0-0.6,0.1-0.9,0.3
		c-10.6,5.3-20.4,12.3-27.6,18.1c-3.6,2.9-6.6,5.5-8.7,7.4c-2.1,1.9-3.5,3.2-3.7,3.4c-0.2,0.1-0.4,0.3-0.5,0.5l-0.2,0.3
		c-0.1,0.1-0.1,0.2-0.2,0.4L104.9,112.5l-0.4,0L104.9,112.5z M209.8,63.7c-0.8-0.1-1,0-1.6,0.1c-26.9,3.7-47.8,12.8-52.3,14.6
		c-0.6,0.3-1.3,0.5-1.4,0.7c-0.1,0.2,0.1,0.7,0.6,1.6c1.1,2.1,18.9,41.5,19.2,42c0.4,0.7,0.5,1,0.8,1.4c0.1,0.1,0.5,0,1.1-0.3
		c13.6-5.8,26.5-10.4,43.8-13.3c1.2-0.2,1.1-0.2,1.3-0.6c0.1-0.2,0.1-0.2-0.2-1.6c-3.5-16.5-8.5-35.8-10.5-43.2
		C210.1,63.8,209.8,63.7,209.8,63.7z M209.8,63.7l0.1-0.4c-0.2,0-0.4-0.1-0.6-0.1c-0.5,0-0.8,0.1-1.2,0.2
		c-27,3.7-47.9,12.8-52.4,14.6c-0.3,0.1-0.6,0.2-0.9,0.4l-0.4,0.2c-0.1,0.1-0.2,0.1-0.3,0.3l-0.1,0.3c0,0.2,0.1,0.4,0.2,0.7
		c0.1,0.3,0.3,0.6,0.4,0.9c0.5,1,5.3,11.4,9.9,21.6c2.3,5.1,4.6,10.1,6.3,13.9c0.9,1.9,1.6,3.5,2.1,4.6c0.3,0.6,0.5,1,0.6,1.3
		c0.2,0.3,0.2,0.5,0.3,0.6c0.4,0.6,0.5,1,0.8,1.4c0.1,0.2,0.3,0.2,0.5,0.2c0.2,0,0.3-0.1,0.5-0.1c0.2-0.1,0.4-0.1,0.6-0.2
		c13.6-5.8,26.4-10.4,43.7-13.3c0.6-0.1,0.9-0.1,1.1-0.2l0.3-0.3l0.1-0.3l0.1-0.3c0-0.3-0.1-0.6-0.3-1.5
		c-3.5-16.5-8.5-35.8-10.5-43.2c-0.2-0.7-0.4-1.1-0.5-1.4c-0.2-0.2-0.3-0.3-0.4-0.4l0,0l0,0L209.8,63.7l-0.1,0.4l0.1-0.2l-0.1,0.2
		l0.1,0l0.1-0.2l-0.1,0.2c0,0,0.3,0.3,0.5,1.3c2,7.4,7,26.7,10.5,43.2c0.2,0.9,0.3,1.2,0.2,1.3v0l0,0l-0.1,0.1l0,0l0,0l0,0l0,0l0,0
		c0,0-0.3,0.1-1,0.2c-17.3,2.9-30.3,7.5-43.9,13.3c-0.2,0.1-0.4,0.2-0.5,0.2c-0.1,0.1-0.3,0.1-0.3,0.1v0.1l0-0.1l0,0v0.1l0-0.1
		l-0.1,0.2l0.2-0.2l-0.1-0.1l-0.1,0.2l0.2-0.2c-0.3-0.3-0.4-0.7-0.8-1.3l-0.1,0l0.1,0l0,0l-0.1,0l0.1,0c0-0.1-0.4-0.8-0.9-1.9
		c-3.7-8.1-17.3-38.2-18.3-40.1c-0.2-0.4-0.3-0.7-0.4-0.9c-0.1-0.2-0.1-0.4-0.1-0.4h0l0,0l0,0l0,0l0,0l-0.1,0l0.1,0.1l0,0l-0.1,0
		l0.1,0.1l-0.2-0.1l0.1,0.1l0-0.1l-0.2-0.1l0.1,0.1c0,0,0.2-0.1,0.4-0.2c0.2-0.1,0.5-0.2,0.8-0.3c4.5-1.8,25.4-10.9,52.2-14.6
		c0.5-0.1,0.7-0.2,1.1-0.2c0.1,0,0.3,0,0.4,0L209.8,63.7l-0.1,0.4L209.8,63.7z M218.9,64.5c3,8.7,10,41.7,10.2,42.8s0.4,1.5,0.4,1.5
		c0.3,0.2,1.4-0.1,2-0.1c1-0.1,21-2.9,43,2.8c0.8,0.2,2,0.5,2.4,0.3c0.3-0.1,0.4-1.7,0.4-2.2c0.1-2.1,0.9-14.6-3.5-37
		c-0.2-1.1-0.3-0.8-0.5-1.2c-0.3-0.5-0.8-0.7-1.6-1c-20.8-8.6-49.9-7.6-51-7.6c-1.2,0-1.7,0.1-2,0.5
		C218.7,63.2,218.6,63.5,218.9,64.5z M218.7,63.2l0.3,0.2c0.1-0.1,0.1-0.2,0.4-0.2c0.3-0.1,0.7-0.1,1.3-0.1c0.2,0,1.5,0,3.5,0
		c8.5,0,30.6,0.7,47.3,7.6c0.8,0.3,1.3,0.6,1.4,0.9l0.2,0.3l0.1,0.1c0,0.1,0.1,0.3,0.2,0.7c3.1,15.8,3.6,26.7,3.6,32.4
		c0,2.4-0.1,3.9-0.1,4.5c0,0.3,0,0.8-0.1,1.2c0,0.2-0.1,0.4-0.1,0.6l0,0.1l0,0l0.2,0.1l-0.1-0.2l-0.1,0.1l0.2,0.1l-0.1-0.2l0,0
		l-0.1,0c-0.5,0-1.4-0.2-2-0.4c-11-2.8-21.4-3.6-29.3-3.6c-4,0-7.3,0.2-9.7,0.4c-2.4,0.2-3.9,0.4-4.1,0.4c-0.5,0-1.2,0.2-1.6,0.2
		l-0.1,0l0,0l0,0l0,0l0,0l0,0l0,0l-0.2,0.3l0.3-0.2l-0.1,0.1l0.1-0.1v0l-0.1,0.1l0.1-0.1c0,0-0.2-0.4-0.4-1.4
		c-0.2-1.1-7.2-34.1-10.2-42.8c-0.2-0.6-0.2-1-0.2-1.1l0,0l-0.2,0l0.2,0l0,0l-0.2,0l0.2,0L218.7,63.2l0.3,0.2L218.7,63.2l-0.4-0.1
		l0,0.2c0,0.2,0,0.6,0.3,1.3c2.9,8.6,10,41.7,10.2,42.7c0.2,1.1,0.4,1.6,0.4,1.6l0,0.1l0.1,0.1c0.2,0.1,0.4,0.1,0.6,0.1
		c0.5,0,1.3-0.2,1.7-0.2c0.3,0,1.7-0.2,4.1-0.4c2.4-0.2,5.7-0.4,9.6-0.4c7.8,0,18.2,0.7,29.1,3.5c0.6,0.2,1.5,0.4,2.2,0.4
		c0.2,0,0.3,0,0.5-0.1c0.2-0.1,0.2-0.2,0.3-0.3c0.2-0.3,0.2-0.7,0.3-1.2c0-0.4,0.1-0.9,0.1-1.1c0-0.6,0.1-2.1,0.1-4.6
		c0-5.8-0.5-16.7-3.6-32.6c-0.1-0.6-0.2-0.8-0.3-1l-0.2-0.2l-0.1-0.2c-0.4-0.6-1-0.9-1.8-1.2c-16.9-7-39-7.6-47.6-7.6
		c-2.1,0-3.3,0-3.5,0c-0.6,0-1,0-1.4,0.1c-0.4,0.1-0.7,0.3-0.9,0.6l0,0.1l0,0.1L218.7,63.2z M283.3,78.4c0.3,1.6,3,19.5,1.9,34.9
		c0,0.6-0.1,1.2,0.2,1.6c0.4,0.5,0.8,0.5,1.6,0.8c0.9,0.4,12.5,4.5,23.7,16.7c1.1,1.2,1.2,2.1,1.7,1.8c0.3-0.2,0.3-1.7,0.3-2.3
		c-0.1-18-3.5-34.4-3.8-35.5c-0.3-1.1-0.4-1.1-0.8-1.8c-0.6-1-0.9-1-1.1-1.4c-0.2-0.4-12.2-10.9-22.2-16.7c-0.8-0.5-1.6-1.2-1.9-0.8
		C282.9,75.7,283,76.9,283.3,78.4z M282.9,75.7l0.3,0.3l-0.1-0.1l0,0.1l0,0l-0.1-0.1l0,0.1l0-0.1V76l0,0l0-0.1V76
		c0,0,0.3,0.1,0.5,0.3c0.3,0.2,0.6,0.4,0.9,0.6c5,2.9,10.5,6.9,14.7,10.3c2.1,1.7,4,3.2,5.3,4.4c0.7,0.6,1.2,1,1.5,1.4
		c0.2,0.2,0.3,0.3,0.4,0.4l0.1,0.1l0,0l0.2-0.1l-0.2,0.1l0,0l0.2-0.1l-0.2,0.1c0.1,0.3,0.3,0.4,0.5,0.6c0.2,0.2,0.4,0.4,0.6,0.9
		c0.2,0.4,0.4,0.6,0.5,0.8c0.1,0.2,0.2,0.4,0.3,0.9c0.3,1.1,3.7,17.5,3.8,35.4c0,0.2,0,0.4,0,0.7c0,0.3,0,0.7,0,1l-0.1,0.3l0,0.1
		l0.1,0.1l-0.1-0.1l-0.1,0l0.1,0.1l-0.1-0.1l0,0l0,0.1v-0.1l0,0l0,0.1v-0.1v0.1l0-0.1l0,0v0.1l0-0.1c0,0-0.2-0.2-0.4-0.5
		c-0.2-0.3-0.5-0.8-0.9-1.2c-5.6-6.2-11.3-10.3-15.8-12.9c-4.4-2.6-7.6-3.7-8.1-3.9c-0.4-0.2-0.7-0.3-0.9-0.4
		c-0.2-0.1-0.4-0.2-0.5-0.4c-0.1-0.1-0.2-0.3-0.2-0.6c0-0.2,0-0.5,0-0.7c0.2-2.6,0.3-5.2,0.3-7.9c0-13.1-1.9-25.8-2.1-27.1
		c-0.2-1.5-0.4-2.6-0.4-2.6L282.9,75.7l0.3,0.3L282.9,75.7l-0.4,0c0,0,0.2,1.2,0.4,2.7c0.2,1.3,2.1,14,2.1,27c0,2.6-0.1,5.2-0.3,7.8
		c0,0.3,0,0.5,0,0.8c0,0.4,0.1,0.8,0.3,1.1c0.2,0.3,0.5,0.5,0.8,0.6c0.3,0.1,0.6,0.2,0.9,0.4c0.5,0.2,3.6,1.3,8,3.9
		c4.4,2.6,10.1,6.6,15.6,12.8c0.4,0.5,0.7,0.9,0.9,1.3c0.1,0.2,0.2,0.3,0.3,0.5c0.1,0.1,0.3,0.3,0.6,0.3c0.1,0,0.3,0,0.4-0.1
		c0.2-0.1,0.3-0.3,0.3-0.4c0.1-0.4,0.1-1,0.1-1.5c0-0.3,0-0.5,0-0.7c-0.1-18-3.5-34.4-3.8-35.5c-0.1-0.6-0.2-0.9-0.4-1.1
		c-0.1-0.3-0.3-0.4-0.5-0.8c-0.3-0.5-0.6-0.8-0.7-1c-0.2-0.2-0.3-0.3-0.3-0.4l-0.1-0.2c-0.3-0.3-1.1-1.1-2.5-2.3
		c-4.1-3.5-12.4-10.2-19.7-14.4c-0.3-0.2-0.6-0.4-0.9-0.6c-0.3-0.2-0.6-0.4-0.9-0.4c-0.2,0-0.4,0.1-0.5,0.2l-0.1,0.1l0,0.2
		L282.9,75.7z M284.6,125.7c-1,10.6-3.9,23.8-4.2,24.7s-0.7,2.3-0.7,2.3l30.7-0.5c0,0,0.5-2.2,0.9-3.9s0.1-0.5,0.1-1
		c0-0.6-0.3-0.7-0.6-1.4c-9.1-14.3-22.6-21.1-23.8-21.6c-1.4-0.7-2.1-0.8-2.2-0.6C284.7,123.7,284.6,125.1,284.6,125.7z
		 M284.7,123.7l0.3,0.3l-0.2-0.2l0.1,0.2l0.1-0.1l-0.2-0.2l0.1,0.2v0v0l0,0v0v0l0,0c0.2,0,0.8,0.1,1.8,0.7
		c1.2,0.6,14.6,7.3,23.6,21.5c0.2,0.3,0.4,0.5,0.5,0.7c0.1,0.2,0.1,0.2,0.1,0.5l0,0.2l0.1,0.2c0,0.1,0.2,0.2,0.3,0.2
		c0.2,0,0.3-0.1,0.3-0.1l0.1-0.1l0,0l-0.2-0.1l0.2,0.1l0,0l-0.2-0.1l0.2,0.1l-0.3-0.2l0.3,0.2l0,0l-0.3-0.2l0.3,0.2l-0.3-0.2
		l0.2,0.3l0.1-0.1l-0.3-0.2l0.2,0.3l-0.2-0.3v0.4l0.2-0.1l-0.2-0.3v0.4v-0.4l-0.3,0.3l0.3,0.1v-0.4l-0.3,0.3l0.3-0.3l-0.4,0.1
		l0.1,0.2l0.3-0.3l-0.4,0.1l0.4-0.1h-0.4l0,0.1l0.4-0.1h-0.4h0.3l-0.3-0.1l0,0.1h0.3l-0.3-0.1c0,0-0.1,0.3-0.2,0.9
		c-0.4,1.7-0.9,3.9-0.9,3.9l0.4,0.1l0-0.4l-30.7,0.5l0,0.4l0.4,0.1c0,0,0.5-1.4,0.7-2.3c0.1-0.5,0.9-4,1.8-8.8
		c0.9-4.8,1.9-10.7,2.4-16c0.1-0.6,0.2-1.9,0.2-1.9L284.7,123.7l0.3,0.3L284.7,123.7l-0.4,0c0,0-0.1,1.4-0.2,1.9
		c-0.5,5.3-1.5,11.2-2.4,16c-0.9,4.7-1.7,8.3-1.8,8.7c-0.3,0.9-0.7,2.3-0.7,2.3l-0.2,0.5l31.5-0.5l0.1-0.3c0,0,0.5-2.2,0.9-3.9
		c0.1-0.4,0.1-0.6,0.2-0.7l0-0.2l0-0.1l0-0.1l-0.1-0.2l-0.3-0.1c-0.2,0-0.3,0.1-0.3,0.1l-0.1,0.1l0,0v0l0.2,0.1l-0.2-0.2l0,0
		l0.2,0.1l-0.2-0.2l0.3,0.2v-0.4c-0.2,0-0.2,0.1-0.3,0.1l0.3,0.2v-0.4v0.4l0.3-0.2c0-0.1-0.2-0.2-0.3-0.2v0.4l0.3-0.2l-0.2,0.1
		l0.3,0l0-0.1l-0.2,0.1l0.3,0v-0.1c0-0.3-0.1-0.6-0.2-0.9c-0.1-0.2-0.3-0.4-0.5-0.7c-9.2-14.4-22.7-21.2-23.9-21.8
		c-1.1-0.5-1.7-0.7-2.2-0.7c-0.2,0-0.3,0-0.5,0.2l-0.1,0.1l0,0.1L284.7,123.7z M276.5,120.9c-0.1-0.4-0.3-0.4-1.6-0.9
		c-1.5-0.6-17.4-6.2-41.3-3.7c-0.8,0.1-1.6,0.3-2.5,0.5c-0.2,0.1-0.1,0.2,0.1,1.7c2.3,12.7,3.6,31.7,3.7,32.3
		c0.2,1.2,0.3,1.9,0.3,1.9l35.7,0.3c0,0,0.1,0,0.6-1.7c0.5-1.7,3.4-10.3,4.9-28.4C276.6,121.8,276.5,120.9,276.5,120.9z
		 M276.5,120.9l0.4-0.1l-0.2-0.4c-0.2-0.2-0.3-0.2-0.6-0.3c-0.2-0.1-0.6-0.2-1-0.4c-0.7-0.3-3.7-1.4-8.7-2.4c-5-1-12-2-20.5-2
		c-3.8,0-7.9,0.2-12.3,0.7c-0.8,0.1-1.7,0.3-2.5,0.5l-0.3,0.2l-0.1,0.4c0,0.3,0.1,0.7,0.3,1.6c1.1,6.3,2,14.2,2.6,20.6
		c0.3,3.2,0.6,6,0.7,8.1c0.1,1,0.2,1.9,0.2,2.5c0.1,0.6,0.1,1,0.1,1.1c0.1,0.6,0.2,1,0.2,1.4s0.1,0.5,0.1,0.5l0,0.3l36.5,0.3v-0.4
		l0,0H271v0.4c0.2,0,0.3-0.1,0.3-0.2c0.1-0.2,0.3-0.5,0.7-1.8c0.5-1.7,3.4-10.3,4.9-28.4c0-0.4,0-0.7,0-1c0-0.6,0-1,0-1l0,0l0,0
		L276.5,120.9l-0.4,0c0,0,0,0.1,0,0.2c0,0.2,0,0.4,0,0.7c0,0.3,0,0.6,0,1c-1.5,18.1-4.4,26.6-4.9,28.3c-0.3,0.8-0.4,1.2-0.5,1.4
		l0,0.1l0,0l0.2,0.1l-0.1-0.2l0,0l0.2,0.1l-0.1-0.2l0.2,0.3v-0.4l-0.2,0.1l0.2,0.3v-0.4l-0.3,0.1l-0.1,0.3l0,0h0.4l0-0.4l-35.7-0.3
		l0,0.4l0.4,0c0,0-0.1-0.7-0.3-1.9c0,0,0-0.4-0.1-1c-0.4-4.2-1.6-20.2-3.6-31.3c-0.2-0.9-0.3-1.3-0.3-1.4v0l-0.2,0l0.2,0.2l0.1-0.1
		l-0.2,0l0.2,0.2l-0.2-0.2l0.1,0.2l0.1-0.1l-0.2-0.2l0.1,0.2l-0.1-0.1l0,0.1l0,0l-0.1-0.1l0,0.1c0.8-0.2,1.7-0.4,2.4-0.4
		c4.3-0.5,8.4-0.6,12.2-0.6c8.4,0,15.4,0.9,20.3,2c5,1,8,2.1,8.5,2.3c0.6,0.3,1,0.4,1.2,0.5l0.1,0.1l0,0.1L276.5,120.9l-0.4,0
		L276.5,120.9z M222.9,118.2c-0.7-0.2-1.4,0-2.2,0.1c-20.7,3.9-39,11.5-39.9,11.9c-0.9,0.4-2.1,1-2.3,1.4c0,0,0.4,1.2,0.9,2.2
		c0.4,0.7,8.3,16.6,8.7,17.2c0.3,0.6,0.4,1.7,0.4,1.7l38.1-0.1c0,0,0.5-1,0.5-1.6c0-0.6-3.8-31-3.8-31.3
		C223.2,119.3,222.9,118.2,222.9,118.2z M222.9,118.2l0.1-0.4c-0.3-0.1-0.5-0.1-0.8-0.1c-0.5,0-1,0.1-1.6,0.2
		c-20.7,4-39.1,11.5-40,11.9c-0.5,0.2-1,0.4-1.4,0.7c-0.5,0.3-0.8,0.5-1,0.9l-0.1,0.1l0,0.1c0,0,0.4,1.2,0.9,2.2
		c0.4,0.7,8.3,16.6,8.7,17.2c0.1,0.3,0.2,0.7,0.3,1c0,0.2,0,0.3,0.1,0.4l0,0.2l0,0.4l38.7-0.1l0.1-0.2c0,0,0.1-0.3,0.3-0.6
		c0.1-0.3,0.3-0.8,0.3-1.2c0-0.1,0-0.2,0-0.5c-0.2-1.9-1.2-9.6-2-16.8c-0.4-3.6-0.9-7.1-1.2-9.7c-0.2-1.3-0.3-2.4-0.4-3.1
		c0-0.4-0.1-0.7-0.1-0.9l0-0.2l0-0.1v0l-0.3,0h0.3v0l-0.3,0h0.3c0-0.7-0.3-1.7-0.3-1.7l-0.1-0.2l-0.2-0.1L222.9,118.2l-0.4,0.1
		c0,0,0.1,0.2,0.2,0.6c0.1,0.3,0.2,0.7,0.2,0.9l0,0.2c0.1,1,1.1,8.6,2,16.1c0.5,3.7,0.9,7.4,1.3,10.2c0.2,1.4,0.3,2.6,0.4,3.4
		c0,0.4,0.1,0.8,0.1,1l0,0.3l0,0.1l0,0h0h0l0,0h0h0c0,0.2-0.1,0.6-0.2,0.9c-0.1,0.2-0.1,0.3-0.2,0.4l-0.1,0.1l0.3,0.2l0-0.4
		l-38.1,0.1l0,0.4l0.4,0c0,0-0.1-1.1-0.4-1.9c-0.3-0.6-8.3-16.5-8.7-17.2c-0.2-0.5-0.5-1-0.6-1.5c-0.2-0.4-0.3-0.7-0.3-0.7l-0.4,0.1
		l0.4,0.2c0,0,0.3-0.3,0.7-0.6c0.4-0.2,0.9-0.5,1.4-0.7c0.9-0.4,19.2-7.9,39.8-11.9c0.6-0.1,1-0.2,1.4-0.2c0.2,0,0.4,0,0.6,0.1
		L222.9,118.2l-0.4,0.1L222.9,118.2z M170.7,135.3c-0.3-0.1-1.9,0.8-2.3,1c-15.1,9.1-22.7,14.1-23.4,14.8c-0.6,0.6-0.6,1-0.6,1
		s34.2,0.5,34.3,0.2c0.1-0.3,0.5-0.2,0.1-0.8c-0.7-1.2-6.7-13.7-7-14.5C171.4,136,171,135.4,170.7,135.3z M170.7,135.3l0.1-0.4
		l-0.1,0c-0.2,0-0.4,0.1-0.6,0.2c-0.7,0.3-1.6,0.8-1.8,0.9c-7.6,4.5-13.2,8.1-17.1,10.5c-1.9,1.2-3.4,2.2-4.5,2.9
		c-1.1,0.7-1.6,1.1-1.9,1.4c-0.6,0.6-0.7,1.1-0.7,1.3l0,0.1l0,0.3l0.3,0c0,0,20.7,0.3,29.9,0.3c1.3,0,2.4,0,3.2,0c0.4,0,0.7,0,0.9,0
		l0.3,0l0.1,0l0.1,0c0,0,0.1,0,0.2-0.2l0.1-0.1c0.1-0.1,0.2-0.2,0.2-0.5c0-0.2-0.1-0.4-0.2-0.6c-0.3-0.6-2-4-3.6-7.4
		c-1.6-3.4-3.2-6.7-3.4-7c-0.3-0.6-0.5-1-0.7-1.4c-0.2-0.3-0.4-0.6-0.8-0.7L170.7,135.3l-0.1,0.4v0l0,0l0,0v0l0,0
		c0,0,0.2,0.2,0.3,0.4c0.2,0.3,0.3,0.7,0.6,1.2c0.2,0.4,1.8,3.7,3.4,7.1c1.6,3.4,3.3,6.8,3.7,7.4l0.1,0.2l0,0l0,0h0v0l0,0h0h0.2
		l-0.1-0.1l0,0.1h0.2l-0.1-0.1l0.1,0.1l-0.1-0.1l0,0l0.1,0.1l-0.1-0.1l0,0c0,0-0.2,0.1-0.2,0.3l0.3,0.2l-0.1-0.3c0,0-0.1,0-0.2,0.2
		l0.3,0.2l-0.1-0.3l0.1,0.3l-0.1-0.3l0,0l0.1,0.3l-0.1-0.3l0,0l0,0h0l0,0l0,0c-0.1,0-0.6,0-1.3,0c-0.7,0-1.7,0-2.9,0
		c-4.6,0-12.1-0.1-18.4-0.1c-3.2,0-6-0.1-8.1-0.1c-2.1,0-3.4,0-3.4,0l0,0.4l0.4-0.1l-0.2,0h0.2l0,0l-0.2,0h0.2l0.1-0.2
		c0.1-0.1,0.2-0.3,0.4-0.6c0.1-0.1,0.7-0.6,1.8-1.3c3.1-2.1,10.2-6.6,21.5-13.4c0.1-0.1,0.6-0.3,1.1-0.6c0.2-0.1,0.5-0.2,0.6-0.3
		l0.2-0.1l0.1,0l0,0l0,0v0h0l0,0v0v-0.2l0,0.2l0,0v-0.2l0,0.2L170.7,135.3z"/>
	<rect x="11.6" y="236.9" fill="#FFFFFF" width="352.1" height="5.1"/>
	<rect id="top_line_1_" x="11.6" y="152.1" fill="#FFFFFF" width="352.1" height="5.1"/>
	<g id="association_1_">
		<path id="a_3_" fill="#FFFFFF" d="M17.6,268l-0.8,4.6h-5.2l5-23.4h6.5l4.3,23.4h-5.2l-0.8-4.6H17.6z M21,263.8l-0.6-4.4
			c-0.2-1.3-0.5-3.9-0.7-5.3h-0.1c-0.2,1.5-0.6,4.1-0.8,5.3l-0.7,4.4H21z"/>
		<path id="s_3_" fill="#FFFFFF" d="M48.7,267.3c1,0.6,2.7,0.9,4.1,0.9c2,0,2.9-0.9,2.9-2.1c0-1.5-1-2.1-3-3.3
			c-3.8-2.3-4.4-4.8-4.4-6.6c0-3.9,2.5-7.2,7.9-7.2c1.6,0,3.1,0.4,3.9,0.8l-0.8,4.6c-0.7-0.4-1.7-0.8-3.1-0.8c-1.8,0-2.7,0.9-2.7,2
			c0,1,0.5,1.7,3.1,3.2c3.2,1.8,4.3,4.3,4.3,6.7c0,4.4-3.3,7.3-8.2,7.3c-2,0-3.9-0.5-4.7-0.9L48.7,267.3z"/>
		<path id="s_2_" fill="#FFFFFF" d="M82.4,267.3c1,0.6,2.7,0.9,4.1,0.9c2,0,2.9-0.9,2.9-2.1c0-1.5-1-2.1-3-3.3
			c-3.8-2.3-4.4-4.8-4.4-6.6c0-3.9,2.5-7.2,7.9-7.2c1.6,0,3.1,0.4,3.9,0.8l-0.8,4.6c-0.7-0.4-1.7-0.8-3.1-0.8c-1.8,0-2.7,0.9-2.7,2
			c0,1,0.5,1.7,3.1,3.2c3.2,1.8,4.3,4.3,4.3,6.7c0,4.4-3.3,7.3-8.2,7.3c-2,0-3.9-0.5-4.7-0.9L82.4,267.3z"/>
		<path id="o_1_" fill="#FFFFFF" d="M123.1,272.9c-5.9,0-7.8-6.3-7.8-12.1c0-5.8,2.4-11.9,8.1-11.9c6.4,0,7.6,7,7.6,11.5
			C131,269.2,127.8,272.9,123.1,272.9L123.1,272.9z M123.3,268.2c1.5,0,2.2-2.8,2.2-7.6c0-4-0.6-7.1-2.2-7.1c-1.6,0-2.4,3.1-2.3,7.2
			C120.9,265.4,121.7,268.2,123.3,268.2L123.3,268.2z"/>
		<path id="c_1_" fill="#FFFFFF" d="M164.9,272.3c-0.6,0.3-1.9,0.5-3.6,0.5c-6.6,0-9.3-5.5-9.3-11.5c0-8.7,5-12.3,9.9-12.3
			c1.7,0,2.9,0.3,3.3,0.6l-0.8,4.5c-0.5-0.2-1.1-0.5-2-0.5c-2.6,0-4.7,2.2-4.7,7.4c0,4.9,1.9,7,4.6,7c0.7,0,1.5-0.1,2.1-0.3
			L164.9,272.3z"/>
		<path id="i_5_" fill="#FFFFFF" d="M192.1,249.2v23.4h-5.4v-23.4H192.1z"/>
		<path id="a_2_" fill="#FFFFFF" d="M219.7,268l-0.8,4.6h-5.2l5-23.4h6.5l4.3,23.4h-5.2l-0.8-4.6H219.7z M223,263.8l-0.6-4.4
			c-0.2-1.3-0.5-3.9-0.7-5.3h-0.1c-0.2,1.5-0.6,4.1-0.8,5.3l-0.7,4.4H223z"/>
		<path id="t_1_" fill="#FFFFFF" d="M252.1,254.2h-4.1v-5h13.6v5h-4.1v18.4h-5.4V254.2z"/>
		<path id="i_4_" fill="#FFFFFF" d="M288.8,249.2v23.4h-5.4v-23.4H288.8z"/>
		<path id="_x30__1_" fill="#FFFFFF" d="M318.8,272.9c-5.9,0-7.8-6.3-7.8-12.1c0-5.8,2.4-11.9,8.1-11.9c6.4,0,7.6,7,7.6,11.5
			C326.7,269.2,323.5,272.9,318.8,272.9L318.8,272.9z M319,268.2c1.5,0,2.2-2.8,2.2-7.6c0-4-0.6-7.1-2.2-7.1c-1.6,0-2.4,3.1-2.3,7.2
			C316.5,265.4,317.4,268.2,319,268.2L319,268.2z"/>
		<path id="n_1_" fill="#FFFFFF" d="M348.9,272.6v-23.4h4.9l3.3,8.4c0.6,1.5,1.7,4.4,2.3,6.3h0.1c-0.1-1.9-0.5-6.5-0.5-10.9v-3.8
			h4.7v23.4h-4.9l-3.2-7.9c-0.7-1.8-1.8-4.9-2.2-6.6h-0.1c0.1,2,0.3,5.9,0.3,10.5v4H348.9z"/>
	</g>
	<g id="highedweb_1_">
		<path id="h_3_" fill="#FFFFFF" d="M26.4,165.5v24.6h10.7v-24.6h14.6v63.3H37.2v-25.2H26.4v25.2H11.9v-63.3H26.4z"/>
		<path id="i_3_" fill="#FFFFFF" d="M71.8,176v52.7H59.6V176H71.8z"/>
		<path id="g_1_" fill="#FFFFFF" d="M109.8,227.3c-2.3,0.9-7.5,1.9-11.6,1.9c-6.6,0-11.3-1.9-14.8-5.2c-4.8-4.6-7.2-12.6-7-21.4
			c0.3-18.6,11.4-27,23.5-27c4.3,0,7.4,0.9,9.1,1.6l-2,10.4c-1.6-0.8-3.6-1.2-6-1.2c-7.1,0-12,4.6-12,17.2c0,11.1,4.4,15.4,8.4,15.4
			c0.5,0,0.9,0,1.3-0.2v-10.7h-3.8v-9.9h14.9V227.3z"/>
		<path id="h_2_" fill="#FFFFFF" d="M131,176v20.5h8.9V176H152v52.7h-12.1v-21H131v21h-12.1V176H131z"/>
		<path id="e_3_" fill="#FFFFFF" d="M188.6,201.9h-13.8v14.3h15.5v12.6h-30v-63.3h29V178h-14.5v11.8h13.8V201.9z"/>
		<path id="d_1_" fill="#FFFFFF" d="M196.2,176.8c2.7-0.5,6.9-1,11.4-1c7.1,0,12,1.6,15.6,5c4.7,4.3,6.7,11.3,6.7,21.2
			c0,10.1-2.7,18.1-7.7,22.4c-3.7,3.2-8.9,4.8-16.8,4.8c-3.6,0-7.1-0.4-9.2-0.6V176.8z M208.2,219.2c0.4,0.2,1.1,0.2,1.6,0.2
			c4.2,0,7.6-4.8,7.6-17.9c0-9.8-2.3-16-7.5-16c-0.6,0-1.2,0-1.7,0.2V219.2z"/>
		<path id="w_1_" fill="#FFFFFF" d="M241.3,228.7l-10.2-63.3h15.1l2.1,22.9c0.7,6.9,1,14.3,1.8,22h0.2c0.9-7.7,2.3-14.6,3.5-22
			l3.9-22.9h11.6l3.5,22.9c1,6.9,2,13.9,2.7,22h0.2c0.7-7.9,1.3-14.6,2-22l2.2-22.9H294l-10.6,63.3h-15.2l-2.7-16.3
			c-0.9-5.5-1.8-12.8-2.6-20.8h-0.2c-1.2,7.9-2.3,15-3.5,20.8l-3.4,16.3H241.3z"/>
		<path id="e_2_" fill="#FFFFFF" d="M321.1,206.4h-11.5v11.9h12.9v10.5h-25V176h24.2v10.5h-12v9.9h11.5V206.4z"/>
		<path id="b_1_" fill="#FFFFFF" d="M329.7,176.8c3.4-0.7,8-1,12.9-1c4.9,0,10.1,0.5,14.1,3.8c3,2.5,4.2,6.2,4.2,9.9
			c0,4.4-2.2,9-7.4,11.4v0.3c6.1,1.8,9.2,6.9,9.2,12.2c0,4.4-1.4,7.7-3.9,10.3c-3.2,3.4-8.8,5.6-18.8,5.6c-3.9,0-7.6-0.2-10.2-0.6
			V176.8z M341.7,197.4h2c3.2,0,5.4-2.8,5.4-6.6c0-3.4-1.6-6.1-4.8-6.1c-1,0-1.9,0.1-2.5,0.3V197.4z M341.7,219.8
			c0.6,0.2,1.3,0.2,2,0.2c3.3,0,6.4-2.1,6.4-6.8c0-4.5-3-6.9-6.3-6.9h-2V219.8z"/>
	</g>
</g>
</svg>
