<?xml version="1.0" encoding="utf-8"?>
<!-- Generator: Adobe Illustrator 18.1.1, SVG Export Plug-In . SVG Version: 6.00 Build 0)  -->
<svg version="1.1" baseProfile="tiny" id="Layer_1" xmlns="http://www.w3.org/2000/svg" xmlns:xlink="http://www.w3.org/1999/xlink"
	 x="0px" y="0px" viewBox="0 0 130 100" xml:space="preserve">
<path d="M38.6,73.5c-3.4,0-6.3-1.2-8.7-3.7c-2.5-2.5-3.7-5.4-3.7-8.8s1.2-6.3,3.7-8.8c6.3-6.4,13.7-10.7,22.2-13
	c8.5-2.3,17-2.3,25.4,0c8.5,2.2,15.9,6.6,22.2,13c2.5,2.5,3.7,5.4,3.7,8.8s-1.2,6.3-3.7,8.8c-2.5,2.5-5.4,3.7-8.7,3.7
	c-3.4,0-6.3-1.2-8.7-3.7c-4.8-4.9-10.7-7.3-17.5-7.3s-12.6,2.5-17.5,7.3C44.9,72.3,42,73.5,38.6,73.5 M117,47
	c-3.3,0-6.1-1.2-8.6-3.8c-12-12.1-26.6-18.1-43.7-18.1s-31.6,6-43.6,18.1c-2.5,2.5-5.4,3.7-8.7,3.7c-3.4,0-6.3-1.3-8.7-3.7
	C1.2,40.7,0,37.8,0,34.5c0-3.3,1.2-6.3,3.7-8.8c11-11.2,24-18.8,38.8-22.7S72.1-1,86.9,3s27.8,11.5,38.8,22.7
	c2.5,2.5,3.7,5.4,3.7,8.8c0,3.3-1.2,6.3-3.7,8.8C123.3,45.7,120.4,47,117,47 M73.5,96.3c-2.4,2.5-5.4,3.7-8.8,3.7
	c-3.4,0-6.2-1.3-8.7-3.7c-2.5-2.4-3.7-5.3-3.7-8.8c0-3.4,1.2-6.4,3.7-8.9c2.4-2.5,5.3-3.8,8.7-3.8c3.4,0,6.3,1.2,8.8,3.8
	c2.5,2.4,3.7,5.3,3.7,8.8C77.2,91,76,93.9,73.5,96.3"/>
</svg>
